<svg version="1.1" class="svg-frame" xmlns="http://www.w3.org/2000/svg" xmlns:xlink="http://www.w3.org/1999/xlink" x="0px" y="0px"
	 width="50" height="50" viewBox="0 0 512 512" xml:space="preserve">
<path fill="#FF2424" opacity="1.000000" stroke="none" 
	d="
M463.000000,513.000000 
	C325.976685,513.000000 188.953354,513.000000 51.320595,512.683960 
	C42.781418,509.041870 40.002449,504.753174 40.002266,495.744598 
	C39.999062,337.339539 40.048561,178.934402 39.874466,20.529526 
	C39.864433,11.401812 42.522820,4.800253 51.000000,1.000000 
	C188.023331,1.000000 325.046661,1.000000 462.684875,1.315832 
	C471.225372,4.967737 473.997559,9.253526 473.997742,18.265656 
	C474.000854,176.668823 473.951233,335.072052 474.126007,493.475006 
	C474.136078,502.603882 471.461487,509.193054 463.000000,513.000000 
M292.500000,31.000053 
	C218.411377,31.000053 144.322739,31.000053 70.291962,31.000053 
	C70.291962,181.978500 70.291962,332.370331 70.291962,482.706726 
	C194.977722,482.706726 319.371368,482.706726 443.708008,482.706726 
	C443.708008,332.021393 443.708008,181.629578 443.708008,31.000053 
	C393.444275,31.000053 343.472137,31.000053 292.500000,31.000053 
z"/>
<path fill="#FFFFFF" opacity="1.000000" stroke="none" 
	d="
M463.468658,513.000000 
	C471.461487,509.193054 474.136078,502.603882 474.126007,493.475006 
	C473.951233,335.072052 474.000854,176.668823 473.997742,18.265656 
	C473.997559,9.253526 471.225372,4.967737 463.149872,1.315832 
	C479.654755,1.000000 496.309479,1.000000 512.957642,1.000002 
	C512.951111,171.666672 512.951111,342.333344 512.951111,513.000000 
	C496.580597,513.000000 480.258942,513.000000 463.468658,513.000000 
z"/>
<path fill="#FFFFFF" opacity="1.000000" stroke="none" 
	d="
M50.531342,1.000000 
	C42.522820,4.800253 39.864433,11.401812 39.874466,20.529526 
	C40.048561,178.934402 39.999062,337.339539 40.002266,495.744598 
	C40.002449,504.753174 42.781418,509.041870 50.855583,512.683960 
	C34.345253,513.000000 17.690508,513.000000 1.042299,513.000000 
	C1.048834,342.333313 1.048834,171.666656 1.048834,1.000000 
	C17.419340,1.000000 33.741013,1.000000 50.531342,1.000000 
z"/>
<path fill="#FFFFFF" opacity="1.000000" stroke="none" 
	d="
M293.000000,31.000053 
	C343.472137,31.000053 393.444275,31.000053 443.708008,31.000053 
	C443.708008,181.629578 443.708008,332.021393 443.708008,482.706726 
	C319.371368,482.706726 194.977722,482.706726 70.291962,482.706726 
	C70.291962,332.370331 70.291962,181.978500 70.291962,31.000053 
	C144.322739,31.000053 218.411377,31.000053 293.000000,31.000053 
M230.500000,63.999950 
	C193.338089,63.999950 156.176178,63.998337 119.014275,64.000847 
	C106.508759,64.001694 101.001335,69.471535 101.001129,81.900131 
	C100.999153,198.718536 100.998848,315.536926 101.001617,432.355347 
	C101.001900,444.415985 106.624664,449.998108 118.769775,449.998474 
	C210.924667,450.001282 303.079559,450.001099 395.234436,449.998627 
	C407.385834,449.998291 412.997803,444.426147 412.998108,432.349365 
	C413.001251,315.364319 413.001587,198.379257 412.997589,81.394211 
	C412.997192,69.663429 407.294312,64.003456 395.479034,64.002304 
	C340.819366,63.996979 286.159668,63.999950 230.500000,63.999950 
z"/>
<path fill="#FF2424" opacity="1.000000" stroke="none" 
	d="
M231.000000,63.999950 
	C286.159668,63.999950 340.819366,63.996979 395.479034,64.002304 
	C407.294312,64.003456 412.997192,69.663429 412.997589,81.394211 
	C413.001587,198.379257 413.001251,315.364319 412.998108,432.349365 
	C412.997803,444.426147 407.385834,449.998291 395.234436,449.998627 
	C303.079559,450.001099 210.924667,450.001282 118.769775,449.998474 
	C106.624664,449.998108 101.001900,444.415985 101.001617,432.355347 
	C100.998848,315.536926 100.999153,198.718536 101.001129,81.900131 
	C101.001335,69.471535 106.508759,64.001694 119.014275,64.000847 
	C156.176178,63.998337 193.338089,63.999950 231.000000,63.999950 
M382.999908,365.500000 
	C382.999908,275.081879 382.999908,184.663727 382.999908,94.289597 
	C298.696930,94.289597 214.969681,94.289597 131.287750,94.289597 
	C131.287750,202.970764 131.287750,311.362213 131.287750,419.710449 
	C215.302948,419.710449 299.030212,419.710449 382.999908,419.710449 
	C382.999908,401.781403 382.999908,384.140717 382.999908,365.500000 
z"/>
<path fill="#FFFFFF" opacity="1.000000" stroke="none" 
	d="
M382.999908,366.000000 
	C382.999908,384.140717 382.999908,401.781403 382.999908,419.710449 
	C299.030212,419.710449 215.302948,419.710449 131.287750,419.710449 
	C131.287750,311.362213 131.287750,202.970764 131.287750,94.289597 
	C214.969681,94.289597 298.696930,94.289597 382.999908,94.289597 
	C382.999908,184.663727 382.999908,275.081879 382.999908,366.000000 
z"/>
</svg>