<svg version="1.1" class="svg-info" xmlns="http://www.w3.org/2000/svg" xmlns:xlink="http://www.w3.org/1999/xlink" x="0px" y="0px"
	 width="50" height="50" viewBox="0 0 512 512" xml:space="preserve">
<path fill="#FFB100" opacity="1.000000" stroke="none" 
	d="
M513.000000,86.531731 
	C508.341187,105.260544 493.682007,116.175919 481.654755,128.805679 
	C418.016693,195.631729 354.071716,262.165527 290.244354,328.811310 
	C284.521881,334.786499 278.879547,340.838409 272.327545,347.778839 
	C265.927704,330.145935 257.346985,315.146606 244.761337,302.665802 
	C232.194366,290.203461 217.200760,281.938812 200.435379,277.162201 
	C200.389709,274.206818 202.362549,273.196167 203.735245,271.881989 
	C280.501312,198.388901 357.291168,124.920677 434.084473,51.456074 
	C440.982574,44.857002 448.204712,38.863815 457.687225,36.088154 
	C479.545898,29.689835 502.933258,41.398876 510.717743,62.858757 
	C511.281769,64.413635 511.930695,65.937714 512.770081,67.738060 
	C513.000000,74.021156 513.000000,80.042305 513.000000,86.531731 
z"/>
<path fill="#FFB100" opacity="1.000000" stroke="none" 
	d="
M1.000000,417.399994 
	C24.738947,410.711304 47.222424,401.865845 65.490784,384.707031 
	C76.166473,374.679688 83.763542,362.246613 91.420822,349.975861 
	C107.034081,324.955597 129.120285,309.642365 158.064316,304.207458 
	C201.171036,296.113220 237.247284,322.032166 246.335770,363.869049 
	C255.997101,408.342834 231.509735,444.684662 195.522385,462.892212 
	C173.315079,474.127869 149.579437,479.002502 124.747597,479.450073 
	C94.868103,479.988678 66.644661,473.715668 40.193081,459.831543 
	C23.403385,451.018799 10.120005,438.536987 1.271956,421.197144 
	C1.000000,419.933319 1.000000,418.866669 1.000000,417.399994 
z"/>
</svg>