<svg version="1.1" xmlns="http://www.w3.org/2000/svg" xmlns:xlink="http://www.w3.org/1999/xlink" x="0px" y="0px"
	width="50" height="50" viewBox="0 0 512 512" xml:space="preserve">
<path fill="#FFFFFF" opacity="1.000000" stroke="none" 
	d="
M513.000000,200.000000 
	C513.000000,304.641235 513.000000,408.782471 513.000000,512.961853 
	C342.400421,512.961853 171.800827,512.961853 1.100622,512.961853 
	C1.100622,342.442139 1.100622,171.884171 1.100622,1.163107 
	C171.666534,1.163107 342.333252,1.163107 513.000000,1.163107 
	C513.000000,67.199127 513.000000,133.349564 513.000000,200.000000 
M470.246521,315.500153 
	C470.246399,247.348434 470.259949,179.196701 470.214996,111.045029 
	C470.212036,106.559929 470.230530,101.991341 469.445465,97.603577 
	C463.676361,65.358727 438.137329,43.817516 405.360413,43.787281 
	C306.382019,43.695976 207.403473,43.746681 108.425003,43.785587 
	C104.773773,43.787022 101.057755,43.889103 97.481743,44.543938 
	C65.089722,50.475521 43.793777,76.073433 43.775494,109.248695 
	C43.721226,207.727264 43.748760,306.205872 43.783081,404.684479 
	C43.784416,408.506012 43.803299,412.394287 44.459114,416.138428 
	C50.095863,448.319427 75.709190,470.162537 108.380470,470.201965 
	C207.525436,470.321564 306.670654,470.251953 405.815765,470.215302 
	C409.301971,470.213989 412.846405,470.106659 416.265106,469.496277 
	C448.514252,463.738342 470.055237,438.245880 470.213165,405.480682 
	C470.356140,375.821167 470.245361,346.160400 470.246521,315.500153 
z"/>
<path fill="currentColor" opacity="1.000000" stroke="none" 
	d="
M470.246521,316.000183 
	C470.245361,346.160400 470.356140,375.821167 470.213165,405.480682 
	C470.055237,438.245880 448.514252,463.738342 416.265106,469.496277 
	C412.846405,470.106659 409.301971,470.213989 405.815765,470.215302 
	C306.670654,470.251953 207.525436,470.321564 108.380470,470.201965 
	C75.709190,470.162537 50.095863,448.319427 44.459114,416.138428 
	C43.803299,412.394287 43.784416,408.506012 43.783081,404.684479 
	C43.748760,306.205872 43.721226,207.727264 43.775494,109.248695 
	C43.793777,76.073433 65.089722,50.475521 97.481743,44.543938 
	C101.057755,43.889103 104.773773,43.787022 108.425003,43.785587 
	C207.403473,43.746681 306.382019,43.695976 405.360413,43.787281 
	C438.137329,43.817516 463.676361,65.358727 469.445465,97.603577 
	C470.230530,101.991341 470.212036,106.559929 470.214996,111.045029 
	C470.259949,179.196701 470.246399,247.348434 470.246521,316.000183 
M86.245171,116.531250 
	C86.245171,172.101730 86.245171,227.672211 86.245171,284.699493 
	C88.426041,282.201538 89.694420,280.772278 90.937531,279.321350 
	C105.677376,262.117188 120.323364,244.831665 135.169128,227.719437 
	C167.107407,190.905258 218.972717,190.920425 250.867218,227.735626 
	C265.046692,244.102676 279.108368,260.572601 293.131653,277.073914 
	C312.475586,299.836090 344.640442,306.544128 371.473480,293.231232 
	C388.887878,284.591278 406.202362,275.747925 423.686340,267.252289 
	C426.917664,265.682159 427.835602,263.858612 427.828186,260.428192 
	C427.721008,210.940384 427.757172,161.452271 427.753479,111.964233 
	C427.752167,94.330391 419.706787,86.245941 402.170868,86.245728 
	C306.693939,86.244568 211.215271,86.551811 115.741455,86.007202 
	C94.611778,85.886665 84.534348,95.260536 86.245171,116.531250 
z"/>
<path fill="#FFFFFF" opacity="1.000000" stroke="none" 
	d="
M86.245178,116.038269 
	C84.534348,95.260536 94.611778,85.886665 115.741455,86.007202 
	C211.215271,86.551811 306.693939,86.244568 402.170868,86.245728 
	C419.706787,86.245941 427.752167,94.330391 427.753479,111.964233 
	C427.757172,161.452271 427.721008,210.940384 427.828186,260.428192 
	C427.835602,263.858612 426.917664,265.682159 423.686340,267.252289 
	C406.202362,275.747925 388.887878,284.591278 371.473480,293.231232 
	C344.640442,306.544128 312.475586,299.836090 293.131653,277.073914 
	C279.108368,260.572601 265.046692,244.102676 250.867218,227.735626 
	C218.972717,190.920425 167.107407,190.905258 135.169128,227.719437 
	C120.323364,244.831665 105.677376,262.117188 90.937531,279.321350 
	C89.694420,280.772278 88.426041,282.201538 86.245171,284.699493 
	C86.245171,227.672211 86.245171,172.101730 86.245178,116.038269 
M404.917114,185.193390 
	C405.326721,179.563812 406.259491,173.915771 406.061523,168.307632 
	C404.723755,130.413284 368.488953,101.648033 331.243042,108.709457 
	C296.468262,115.302376 274.219452,146.370987 279.068115,181.567307 
	C283.517059,213.861862 315.301910,238.844589 347.536133,235.382843 
	C376.354370,232.287949 396.791626,214.652649 404.917114,185.193390 
z"/>
<path fill="currentColor" opacity="1.000000" stroke="none" 
	d="
M404.831299,185.605148 
	C396.791626,214.652649 376.354370,232.287949 347.536133,235.382843 
	C315.301910,238.844589 283.517059,213.861862 279.068115,181.567307 
	C274.219452,146.370987 296.468262,115.302376 331.243042,108.709457 
	C368.488953,101.648033 404.723755,130.413284 406.061523,168.307632 
	C406.259491,173.915771 405.326721,179.563812 404.831299,185.605148 
z"/>
</svg>