<svg xmlns="http://www.w3.org/2000/svg" version="1.0" viewBox="0 0 1043 1047"><g fill="currentColor"><path d="M516.5 5.5c0 4.5.3 5.5 1.7 5.5 1.3 0 1.5-.7 1.1-4-.7-5.1.1-5.1 2.7 0 1.2 2.3 2.5 3.8 3 3.5 1.6-1 1.2-10.5-.3-10.5-.9 0-1.2 1-.9 3 .2 1.6.2 3-.2 3-.3 0-1.2-1.4-2.1-3-.9-1.7-2.3-3-3.3-3-1.4 0-1.7 1-1.7 5.5zM487 19c-21.8 1.7-61.6 7.3-63.4 9-.5.5-.6 1.5-.3 2.3.4 1.2 2.5 1.1 13.9-.9 56.7-9.7 113.1-9.6 171.1.2 3.3.6 3.7.4 3.7-1.4 0-1.2-.8-2.2-2.2-2.5-3.9-1-29.7-4.6-40.8-5.7-13.9-1.4-67.5-2.1-82-1zM620 29.9c0 1.6 1.4 2.2 7.8 3.6 50.6 10.8 105.5 32.6 150.7 59.9 11 6.6 14.2 8.1 14.8 7 1.2-2.2.4-2.9-11.1-9.7-35.5-21.1-68.5-36.2-105.2-48.2-14.4-4.7-51.7-14.5-55.2-14.5-1.1 0-1.8.7-1.8 1.9zM393.8 34.5C354.3 44.9 316.1 60 281.5 78.9 262 89.6 242 102.1 242 103.7c0 2.9 2.6 2 12.2-4 19.2-12 30.1-18 49.2-27.2 31.8-15.4 61.3-26.2 94.3-34.6 14.1-3.6 17.3-4.7 17.3-6.2 0-2.5-2.2-2.2-21.2 2.8zM701 32.5c0 .9-.9 3.5-2 5.7-2.4 5.1-2.4 4.8.1 4.8 1.1 0 1.8-.4 1.4-1-.8-1.2.5-6 1.6-6 .5 0 .9 1.3.9 2.9 0 1.6.3 3.6.6 4.5.7 1.8 2.4 2.2 2.4.6 0-.6.9-3 2-5.2 1.5-3.2 1.7-4.4.8-5-.7-.4-1.4-.4-1.5 0-.1.4-.4 2-.8 3.6-.7 3.5-1.6 2.8-2.4-2.1-.6-3.6-3.1-5.9-3.1-2.8zM513 32.8c0 .5.7.9 1.5.9s1.5-.4 1.5-.9c0-.4-.7-.8-1.5-.8s-1.5.4-1.5.8zM518.8 32.7c.7.3 1.6.2 1.9-.1.4-.3-.2-.6-1.3-.5-1.1 0-1.4.3-.6.6zM522.7 32.7c-.4.3-.7 1.5-.7 2.6 0 1.8-.1 1.8-2.5.3-2.1-1.4-2.4-1.4-1.9-.1.4.8 1.2 1.5 2 1.5s1.4.5 1.4 1c0 .6-1 1-2.2.9-4-.4-5.9.1-5.3 1.1.5.8 1.1.7 2.1-.1 1.1-.9 1.7-.9 2.8 0 1 .8 1.6.9 2.1.1.4-.7 1.2-.7 2.5 0s2.1.7 2.5 0c.3-.5-.1-1-.9-1-2.3 0-2.2-5.7.2-6.3 1.4-.4 1.4-.5.1-.6-.9 0-1.9.2-2.2.6zM326 37c-2.6 2.6-2.5 5.1.1 8.4 2.4 3 4.9 3.3 7.2.8 2.4-2.6 2.1-6.5-.6-9-2.9-2.7-4.1-2.8-6.7-.2zm6.7 2.9c1.6 3.2 0 6.3-3 5.9-2.8-.4-4.6-5-2.7-7.3 1.8-2.1 4.2-1.5 5.7 1.4zM712.5 37c.4.6-.5 3-1.8 5.5-2.1 3.6-2.2 4.5-1 4.9 2.1.8 2.4.8 2.2-.7-.1-.6.1-2.5.6-4 1-3.6 2.5-1.8 2.5 3 0 5.1 1.5 4.6 4.2-1.2 2.1-4.4 2.3-5.5 1.1-5.9-2.1-.8-2.2-.8-1.7 1.1.3 1-.2 2.7-1 3.8-1.5 1.9-1.5 1.9-1.6-1.2 0-4.2-.9-6.3-2.7-6.3-.8 0-1.1.5-.8 1zM318 39.5c0 .3.7 1.7 1.6 3.1 2.2 3.3 1 4.3-1.9 1.6-1.3-1.2-3.1-2.2-4-2.2-2.1 0-2.1-.2.3 4.5 1.1 2.2 2 4.5 2 5.2 0 .7.6 1.3 1.3 1.3 2.4 0 2.6-1.1.6-3.1-1-1-1.9-2.6-1.9-3.5 0-1.2.8-.9 3.3 1 5.1 3.9 5.8 3.2 3.4-2.9-1.2-3-2.8-5.5-3.4-5.5-.7 0-1.3.2-1.3.5zM439.7 39.6c-1.3 1.4-.7 2.6.7 1.5 1-.8 1.6-.9 1.9-.1.3.6.4.5.3-.2-.3-1.4-2-2.1-2.9-1.2zM606 40c0 .5.7 1 1.5 1s1.5.5 1.5 1.2c0 .6.3.8.6.5.8-.8-1.4-3.7-2.7-3.7-.5 0-.9.4-.9 1zM434.4 41.2c-.4.6.4 1.9 2 3 1.4 1.1 2.4 2.4 2 2.9-.8 1.4-2.2 1.1-4.4-1.1-1.1-1.1-2-1.6-2-1.1 0 .6.5 1.3 1 1.6.6.4.8 1.1.4 1.6-.3.5-1 .7-1.5.4-.5-.4-.9-.1-.9.4 0 1.2 2.3 1.5 3.4.4.4-.4 1.7-.8 2.9-.8 3.1 0 3.6-4 .6-4.8-1.4-.4-2-1.1-1.6-2.1.7-1.8-.8-2.2-1.9-.4zM611.4 42c0 1.3.4 1.6 1 1 .7-.7.7-1.3 0-2-.6-.6-1-.3-1 1zM430 42c0 .5.7.7 1.5.4.8-.4 1.5-.8 1.5-1 0-.2-.7-.4-1.5-.4s-1.5.4-1.5 1zM724 42.7c0 1-.9 3.3-2 5.1-1.1 1.8-2 3.5-2 3.7 0 .5 6.8 3.5 8 3.5 1 0 2.2-3.1 1.5-3.9-.3-.3-1 .1-1.4.8-1.1 1.6-5.1.5-5.1-1.4 0-1.8 2.3-3.2 2.8-1.7.6 1.9 2.2 1.4 2.2-.8 0-1.3-.5-1.8-1.5-1.4-1.6.7-2.2-2.1-.6-3 1.4-.9 4.1.4 4.1 2s1.6 1.9 2.5.4c.6-1-5.1-5-7.2-5-.7 0-1.3.8-1.3 1.7zM308.1 44c-1.1.6-1.1 1.2.3 3.1 2.6 3.8 1.9 4.3-1.9 1.4-2-1.5-4.3-2.4-5.1-2.1-1.3.5-1.3.8-.2 2 .8.7 2 3.2 2.8 5.5.7 2.2 1.7 4.1 2.1 4.1 1.3 0 2.2-2.2 1.2-2.9-1.3-.8-3.6-5.1-2.7-5.1.4 0 2.2 1.2 4.1 2.6 1.9 1.4 3.7 2.4 4 2.1.3-.3-.4-3-1.4-6.1-1.4-4-2.2-5.2-3.2-4.6zM443 45.4c0 .8-.6 1.7-1.2 1.9-.8.3-.6.6.5.6 1.1.1 1.7-.6 1.7-1.9 0-1.1-.2-2-.5-2s-.5.6-.5 1.4zM602.1 45.6c0 1.1.3 1.4.6.6.3-.7.2-1.6-.1-1.9-.3-.4-.6.2-.5 1.3zM520.8 48.7l-.3 3.8-17.1.7c-17.9.7-44.9 3.2-51.8 4.8-2.3.5-5.5 1-7.2 1-2.8 0-3.2-.4-3.8-3.5-.7-3.3-1.5-4.2-2.8-2.9-.4.3-.2 1.9.2 3.5 1 3.4-.1 4.2-6.5 5.3-13 2.2-43.2 10.2-58.9 15.6-5 1.6-9.3 3-9.7 3-.4 0-1.2-1.4-1.8-3-1.3-3.9-3.6-4.1-2.6-.3.3 1.5.7 3.2.8 3.7.1.5-3.6 2.4-8.3 4.3-20.9 8.5-51.5 23.1-60.7 29.1-2.1 1.3-2.4 1.2-4-1.7-1-1.7-2.4-3.1-3-3.1-1.7 0-1.6 1.2.2 3.6 2.3 3 1.8 4-3.2 7-13.4 7.7-41.2 27.2-52.9 37.1-2.8 2.4-5.6 4.3-6.1 4.3s-2-1.1-3.3-2.5c-3.3-3.5-4.5-2-1.5 1.9l2.5 3.3-8.3 7.1c-9 7.7-38.1 37-43.6 43.9-3.9 4.8-5 5.2-7.6 2.3-1-1.1-2.2-2-2.7-2-1.7 0-.7 2.5 1.9 4.6l2.7 2.1-4.6 5.4c-8.1 9.6-22.7 30-32 44.7-5 7.9-9.3 14.1-9.7 14-4.7-2.5-6.2-3-6.9-2.4-.7.7.4 1.7 4.3 4.1 1.4.9.2 3.8-9.3 22.5-5.9 11.8-13.3 27.8-16.4 35.5-3.5 8.5-6.2 13.9-7 13.9-.7-.1-2.5-.5-4.1-.9-4-1.1-3.4 1.2.9 3 2.8 1.2 3.5 1.9 2.9 3.2-5.6 13.9-16.2 52.9-19 70.2l-.7 4.3-3.9-.5c-5.1-.7-5.4 1.8-.3 2.8 3.4.6 3.6.8 3 3.8-2.7 14.7-6.3 55.1-6.6 73.4 0 1.9-.5 2.3-3.5 2.3-2.4 0-3.5.5-3.5 1.5s.9 1.3 3 1c1.6-.2 3.2 0 3.4.4.5.7.9 7.1 2.1 30.1.6 10.3 3.6 37.5 5.1 45.7.6 3 .4 3.2-3 3.8-5.1 1-4.8 3.5.2 2.8l3.9-.5 1.2 6.3c3.6 18.7 13.2 53.9 18.8 68.5.2.7-1.2 1.7-3.1 2.4-2 .6-3.6 1.5-3.6 1.9 0 1.8 1.5 1.9 4.7.6 3.1-1.3 3.4-1.3 4 .3 4.4 13.1 26 59.7 30.8 66.5 2.2 3.1 1.9 4.5-1.6 6.3-2.1 1.1-2.8 1.9-2.1 2.6.7.7 2 .4 4.1-.8 1.7-1 3.2-1.6 3.4-1.3.2.2 2.5 4 5.2 8.4 7.5 12.4 20.7 31.3 30.7 44.2l9.1 11.6-2.6 2.3c-2.4 2.1-3.6 4.4-2.2 4.4.3 0 1.9-1 3.6-2.2l3-2.2 8.1 8.9c10.5 11.5 26.7 27.8 38.6 38.6l9.3 8.5-2.1 2.7c-3 3.7-1.7 4.7 1.8 1.5l2.7-2.6 9.5 7.5a461 461 0 0 0 42.7 30.1l12.3 7.6-2 3.3c-1.3 2.3-1.6 3.4-.8 3.9.7.4 1.4.2 1.6-.4.2-.6 1.1-2.1 2-3.2 1.7-2.1 1.8-2 14.2 4.6 12.4 6.7 37.9 18.5 51.8 23.9 5.7 2.2 7.1 3.2 6.6 4.4-1.3 3.2-1.6 6.1-.6 6.1.6 0 1.6-1.6 2.2-3.6.9-2.7 1.6-3.4 2.9-2.8 9.2 3.9 43.8 13.6 63.6 17.7l11 2.3-.3 3.7c-.2 2.8.1 3.7 1.3 3.7 1 0 1.5-1 1.5-2.9 0-1.7.3-3.2.8-3.4.4-.3 4.8.1 9.7.9 14 2.1 37.5 4.2 54.3 5l15.2.6v4c0 2.3.4 3.7 1 3.3.6-.3 1-2.2 1-4.1 0-3.3.1-3.4 3.8-3.4 17.1-.1 65.7-4.5 72.6-6.6 2.1-.7 3.6 1.1 3.6 4.3 0 1.4.6 2.3 1.5 2.3 1.2 0 1.4-.8.9-3.8l-.6-3.8 6.9-1.2c12.3-2.3 38.5-9.1 54-14l15.3-4.9 1.2 3.3c1.3 3.5 3.6 4.2 2.9.8-1.1-5.3-.9-5.5 8.9-9.4 16.8-6.7 26.1-10.9 44-20.1 18.5-9.6 17.4-9.4 20.6-4.2 2 3.1 3 .4 1.1-2.9-1-1.7-1.4-3.5-1-3.9.5-.5 5.8-3.9 12-7.8a472.4 472.4 0 0 0 42.7-30.2l9-7.2 2.2 2.7c2.3 2.5 4.4 3.4 4.4 1.8 0-.5-.9-1.7-2-2.7-1.1-1-2-2.3-2-3 0-.7 2.4-3.2 5.3-5.6 8.6-7.3 32.3-30.8 41.4-41.1l8.6-9.7 2.7 1.9c4.8 3.4 7 2.3 2.5-1.2-1.4-1.1-2.5-2.4-2.5-3 0-.5 2.9-4.6 6.5-9.1 9.3-11.6 21-28.2 30-42.4 4.2-6.8 8.2-12.3 8.8-12.3.7 0 2.1.7 3.1 1.5 2.5 1.9 3.6 1.9 3.6.1 0-.8-.9-1.7-1.9-2.1-4.2-1.3-4.3-3-.6-9.4 5.7-9.8 19-37.5 24.5-51.1 5.2-13 5.6-13.5 10.9-11.9 3 .9 2-1.9-1.2-3.2l-3.4-1.4 4.9-15c5.4-16.5 9.9-33.3 13.2-50l2.3-11h3.6c4.6 0 4.9-1.8.5-2.5-2.6-.4-3.3-1-3.1-2.5.1-1.1 1.1-9 2.2-17.6 1.8-13.6 3.6-36 4.4-53.9l.2-5.5h3.4c1.9 0 3.6-.6 3.8-1.3.3-.8-.8-1.2-3.6-1.2H991v-7.8c0-15.3-4.5-62.6-6.6-69.5-.5-1.7-.1-2.1 4.9-3.1 3.9-.9 2.3-2.7-2-2.4l-3.6.3-3.2-15c-4-18.4-7.2-30.3-12.8-47.4l-4.4-13.2 3.4-1.4c3.6-1.5 4.7-4.2 1.3-3.1-1.1.3-2.8.9-3.8 1.2-1.6.5-2.5-1.1-6.2-10.3-6.2-15.7-16.2-37.1-23.2-49.7l-6-11 2.1-1.7c1.2-1 2.7-1.9 3.3-2.1.6-.2.8-.9.4-1.6-.5-.8-1.6-.5-4 .9l-3.3 1.9-6.6-10.9c-7.5-12.2-23.4-34.7-32.6-46.1l-6-7.5 2.6-2.7c3.4-3.6 2.3-4.7-1.7-1.8-2.3 1.7-3.4 2-3.9 1.1-2.6-4.1-27-29.5-39.9-41.3l-15.3-14.1 2.6-2.7c1.9-2 2.3-3 1.5-3.5-.7-.5-2.1.4-3.5 2.1l-2.3 2.8-5.6-4.4c-13.3-10.5-32.4-24.1-45-32-7.5-4.7-13.6-9-13.6-9.6 0-.5.7-1.9 1.5-3 1.8-2.4 1.9-3.4.3-3.4-.7 0-2.1 1.4-3 3l-1.7 3-6.3-3.6c-11.5-6.6-37.1-18.8-51.1-24.4-14.6-5.8-14.5-5.7-12.2-11.3.5-1.2.3-1.7-.8-1.7-.8 0-2 1.3-2.6 3-.5 1.6-1.3 3-1.7 3-.3 0-6.8-2-14.3-4.5-18-5.9-42.2-12.1-58.3-14.9-3.6-.6-3.6-.7-3.1-4.6.4-2.4.2-4-.5-4-1.2 0-2.2 2.4-2.2 5.2 0 2.3 1.7 2.4-20.5-.6-14.5-2-36.6-3.6-48.7-3.6H523v-4c0-5.1-1.8-5.3-2.2-.3zM496.2 61c.3 4.3.1 4.5-2.5 4.8-2.5.3-2.7.1-2.7-3.2 0-1.9-.3-4.1-.6-4.9-.4-1.1.2-1.7 1.8-1.9 3.2-.5 3.6 0 4 5.2zm7.8-1c0 4.6-.2 5-2.4 5-2.1 0-2.4-.5-2.8-4.6-.4-5.2-.3-5.4 2.9-5.4 2.1 0 2.3.4 2.3 5zm8 0c0 4.6-.2 5-2.4 5-2.1 0-2.4-.5-2.8-4.6-.4-5.2-.3-5.4 2.9-5.4 2.1 0 2.3.4 2.3 5zm8.5 0c0 4.1-.2 4.5-2.6 4.8-2.5.3-2.7 0-3.1-4.3-.4-5.4-.2-5.7 3.2-5.3 2.3.3 2.5.7 2.5 4.8zm7.9-4.2c.2.4.2 2.7-.1 5-.5 3.6-.9 4.2-2.9 4.2-2.2 0-2.4-.4-2.4-5s.2-5 2.4-5c1.4 0 2.7.4 3 .8zm8 0c.2.4.2 2.7-.1 5-.5 3.6-.9 4.2-2.9 4.2-2.2 0-2.4-.4-2.4-5s.2-5 2.4-5c1.4 0 2.7.4 3 .8zm8 .9c-.1.7-.2 2.9-.2 4.8-.2 3-.5 3.5-2.7 3.5-2.3 0-2.5-.3-2.5-5.1 0-4.9.1-5 2.8-4.7 1.5.2 2.7.9 2.6 1.5zm8.2 1c-.3.8-.6 3-.6 4.9 0 3-.3 3.4-2.5 3.4-2.3 0-2.5-.3-2.5-4.8 0-5.7.2-6.1 3.6-5.4 1.7.3 2.3.9 2 1.9zM488 60c0 2.2.1 4.3.3 4.7.1.5-1 .9-2.4 1.1-2.5.3-2.7 0-3.1-4.3-.4-5.3-.3-5.5 2.9-5.5 2 0 2.3.5 2.3 4zm73-.6c0 5-.9 6.6-3.6 6.6-2.2 0-2.4-.4-2.4-5 0-4.9.1-5 3-5 2.7 0 3 .3 3 3.4zm-89.2 3.4c.3 4.9.2 5.2-2.1 5.2-1.9 0-2.6-.7-3.1-3.1-1-5-.7-6.7 1.2-7.2 3.1-.8 3.7-.1 4 5.1zm8.4-2.3c0 1.9.1 4.1.2 4.7.1.7-1.1 1.4-2.5 1.6-2.2.3-2.7-.2-3.3-2.9-1.2-6-.9-6.9 2.4-6.9 2.7 0 3 .3 3.2 3.5zm88.8-.8c0 5.2-1.1 7.3-3.6 7.3-2.2 0-2.4-.4-2.4-4.3 0-5 .4-5.7 3.7-5.7 1.8 0 2.3.5 2.3 2.7zm7.1-1.7c1 0 1.2 4.4.3 7.8-1 3.5-4.8 2.6-5.2-1.2-.5-4.5.6-7.9 2.4-7.2.9.3 2 .6 2.5.6zm-112.5 2.4c1.1 4.4.1 8.1-2.3 8.4-1.4.2-2.3-.2-2.3-1 0-.7-.3-2.9-.6-5-.6-3.6-.3-4 3.8-4.7.4 0 1 1 1.4 2.3zm121.2-.9c.2.2 0 2.4-.3 5-.6 4-1 4.6-2.9 4.3-2.3-.3-3.3-4.1-2.1-8.5.4-1.9 1-2.3 2.8-1.7 1.2.3 2.3.8 2.5.9zm-128.6 6c.3 3.7.1 4-2.3 4.3-2.2.3-2.7-.2-3.3-2.9-1-5.4-.7-6.7 1.7-7.1 2.7-.4 3.4.6 3.9 5.7zm136.7-4.9c.2.2 0 2.4-.3 4.9-.7 4.3-.9 4.6-3.4 4.3-2.4-.3-2.7-.7-2.4-3.8.5-6.1 1.1-7.2 3.5-6.4 1.2.3 2.4.8 2.6 1zm-144.8 4.9c.8 4.8.5 5.5-2.5 5.5-1.8 0-2.5-.7-3-3.1-1.2-6-.8-7.1 2.1-6.7 2.4.3 2.9.9 3.4 4.3zM601 62.9c0 1-.3 3.3-.6 5-.6 2.7-1.1 3.2-3.3 2.9-2.4-.3-2.6-.6-2.2-4.3.4-5.1.7-5.5 3.7-5.5 1.7 0 2.4.6 2.4 1.9zm-160.8 4c.9 5.1.9 5-2.2 5.3-2.1.3-2.6-.3-3.4-4-.7-3.5-.6-4.6.5-5.3 2.7-1.7 4.3-.5 5.1 4zm167.7-4c.9.6 1.1 2 .6 5-.8 4.7-1.3 5.2-4.3 4.4-2-.5-2.2-1-1.6-4.2 1-6.5 1.9-7.3 5.3-5.2zm-175.8 5.6c.8 4.8.5 5.5-2.5 5.5-1.8 0-2.5-.7-3-3.1-1.2-6-.8-7.1 2.1-6.7 2.4.3 2.9.9 3.4 4.3zM617 65.2c0 .7-.3 3-.7 5.1-.5 3.4-.9 3.8-3.2 3.5-2.3-.3-2.6-.7-2.3-3.8.4-5.2.9-6 3.7-6 1.4 0 2.5.6 2.5 1.2zm-193.7 1.5c1.6 6 1.7 7.7.5 8.4-2.5 1.7-3.6.9-4.7-3.5-1.4-5.6-1.4-5.4.7-5.9 2.9-.8 3.1-.7 3.5 1zm200.9-.7c1.1 0 .1 8-1.2 9.3-.4.5-1.8.6-3 .2-1.9-.6-2.1-1.1-1.5-4.8.9-5.3 1.3-6 3.2-5.3.8.3 1.9.6 2.5.6zm-207.6 5.9c1.2 4.1 1.1 4.2-1.3 5.2-1.3.5-2.6.9-2.7.9-.3 0-2.6-8.3-2.6-9.4 0-.6 3.2-1.4 4.4-1.2.5.1 1.5 2.1 2.2 4.5zm215.2-4c.9.5 1.1 1.9.7 4.3-.9 4.8-1.7 5.8-4.4 5.1-2-.5-2.2-1-1.5-4.7.3-2.2.8-4.4 1.1-4.9.6-.9 2.5-.9 4.1.2zm-223.1 6c1.2 4 1.1 4.2-1.3 5.1-1.4.6-2.7 1-2.8 1-.3 0-2.6-8.3-2.6-9.4 0-.6 3.2-1.4 4.5-1.2.5.2 1.5 2.2 2.2 4.5zm145.1-3.8c164.1 11.7 309.5 112 378.8 261.3 22 47.4 34.9 95.4 40.5 151.1 1.9 18.1 1.6 65.7-.5 84.5-6.2 56.5-19.5 103.7-43 152.5-52.7 109.4-150.2 195-265.3 233.1a454.03 454.03 0 0 1-293.3-2.9C233.3 901.3 126.4 787.9 86.2 647.5c-6.9-23.8-11.4-46.3-14.7-73.5-2.3-17.8-3.1-67-1.6-86.8 5.8-73.3 29.8-145.9 68.5-206.7 28.3-44.6 67.5-87.4 109.3-119.2 50.5-38.6 110.6-66.7 172-80.7 24.3-5.6 43.9-8.4 75.8-10.9 10-.8 45-.6 58.3.4zm85.9-.3c1 .6 1 1.7 0 5.1-.6 2.4-1.5 4.3-1.9 4.2-.5-.1-1.5-.1-2.4-.1-1.3 0-1.5-.7-.9-4.3.4-2.3.9-4.5 1.2-5 .5-.9 2.5-.9 4 .1zm-239 6.2c1.4 4.9 1.5 4.9-1.6 5.2-2 .3-2.5-.4-3.6-4-1.1-3.7-1.1-4.3.4-5.2 2.5-1.5 3.5-.7 4.8 4zm248-3.6c.2.1-.3 2.2-1 4.7-1.1 3.7-1.7 4.4-3.7 4.1-3.2-.3-3.2-.3-1.9-5.7 1.1-4.3 1.4-4.6 3.8-4 1.4.4 2.7.8 2.8.9zM393 77.6c1.1 3.9 1.1 4.7-.1 5.5-2.3 1.5-3.9 1-4.8-1.4-2.3-6.2-2.3-6.7.1-7.6 3.5-1.4 3.4-1.4 4.8 3.5zM656.5 75c.5.9-1.3 7-2.5 8.3-.5.5-1.8.6-3 .2-2.3-.7-2.3-2 0-7.9.7-1.8 1.4-2.3 3-1.9 1.1.3 2.2.9 2.5 1.3zm-271.3 5.1c1.1 3.7 1 4.3-.7 5.5-2.3 1.7-3.1 1.2-4.5-3.2-1.4-4.2-.8-6.4 1.9-6.4 1.5 0 2.3 1.1 3.3 4.1zm278.4-2.6c1 2.5-1.6 8.5-3.6 8.5-2.8 0-3.2-1.5-1.9-6 1.3-4.1 4.4-5.6 5.5-2.5zm-285.9 5.4c1.6 4.8 1.7 4.6-1.4 5.5-1.9.6-2.5.2-3.3-1.9-2.2-5.7-2.2-7.3-.3-7.8 3-.7 3.5-.3 5 4.2zm294.2-3.3c.1.1-.4 2.2-1.2 4.6-1.2 3.6-1.8 4.3-3.7 4-3.4-.4-3.4-.6-1.5-5.7 1.5-3.9 2.1-4.4 3.9-3.9 1.2.4 2.3.8 2.5 1zm-302.1 5.3c1.5 4.9 1.5 4.8-.8 6.1-1.6.9-2.2.6-3.3-1.7-2.7-5.3-2.9-7.1-1-7.6 3.6-.9 4-.6 5.1 3.2zm309.1-3c1.2.8 1.2 1.6-.3 5.5-1.9 5-2.3 5.3-5 3.3-1.6-1.2-1.7-1.8-.5-5.5 1.2-4.2 2.9-5.1 5.8-3.3zm-316.7 5.7c1.6 3.8 1.8 4.8.7 5.5-2.9 1.8-4.6.9-5.8-3.3-1.2-3.7-1.1-4.3.5-5.5 1-.7 1.9-1.3 2.1-1.3.2 0 1.3 2.1 2.5 4.6zm325.2-.7c-.3.9-1.1 2.8-1.6 4.3-1 2.8-2.3 3.3-5.1 2.2-1.4-.5-1.4-1-.2-4.5 2.1-5.8 2.3-6 5.1-4.7 1.7.8 2.3 1.7 1.8 2.7zM355 91.4c1 3.2 1 4-.1 4.7-2.5 1.6-3.7.9-5.3-3.1-2-5.1-2-4.9.7-5.9 2.7-1.1 3.1-.7 4.7 4.3zm339.6-3c.6 1.7-2.1 8.6-3.5 8.6-1.6 0-4.1-1.2-4.1-2 0-.4.7-2.4 1.5-4.4 1.6-3.7 5-5 6.1-2.2zm-347.4 5.2c1.6 3.8 1.8 4.8.7 5.5-2.7 1.7-4.5.9-5.9-2.9-.8-2-1.6-4-1.8-4.3-.2-.4 3.1-2.5 4.6-2.8.2-.1 1.2 2 2.4 4.5zm355.2-.7c-.3.9-1.1 2.8-1.6 4.3-1.1 3-2.6 3.5-5 1.5-1.4-1.1-1.4-1.6.3-5.4 1.8-4 2.1-4.2 4.5-3.1 1.7.8 2.3 1.7 1.8 2.7zm-362.8 3.7c1.8 4.2 1.3 6.4-1.4 6.4-2.5 0-5.9-8-3.9-9.2 2.4-1.5 3.8-.8 5.3 2.8zm369.2-2.7c2 1.2-1.4 9.1-3.9 9.1-2.8 0-3.2-2-1.4-6.3 1.5-3.7 2.8-4.4 5.3-2.8zm-376.2 6.2c1.8 4 1.8 4.2-.1 5.5-2.7 2-2.9 1.9-5.3-3.1-2-4.1-2-4.5-.4-5.4 2.9-1.7 3.8-1.2 5.8 3zM716 97c1.9 1 1.9 1.1-.2 5.5-2.4 5-2.5 5-5.2 3-1.9-1.4-1.9-1.6-.1-5.5 1.9-4.3 2.5-4.6 5.5-3zm-390.5 7c1.6 3.6 1.7 4.3.4 5.1-2.6 1.6-3.8.9-5.9-3.2-1.2-2.3-2-4.2-1.8-4.3 1.3-1.1 4.4-2.4 4.9-2.1.3.2 1.4 2.3 2.4 4.5zm397.9-3.7c1.7 1.3 1.7 1.5-.3 5.5-2.3 4.6-2.9 4.8-5.4 2.9-1.6-1.1-1.6-1.5.4-5.5 2.3-4.6 2.7-4.8 5.3-2.9zM318 107.2c1.9 3.9 1.9 4.2.2 5.4-2.6 2-3 1.8-5.3-2.8-2-4-2-4.2-.3-5.5 2.7-1.9 3.2-1.7 5.4 2.9zm412.9-3.3c1.5.9.8 4.1-1.6 7.8-1.3 1.9-1.8 2.1-3.7 1.1l-2.4-1.3c-.2-.2.6-2.1 1.8-4.4 2-4.1 3.3-4.8 5.9-3.2zm8.3 5.5c-3.1 7.4-4.3 8.5-7.2 6.6-1.2-.8-1.1-1.5.8-5.5 2.2-4.5 2.4-4.6 4.5-3.2 1.2.8 2.1 1.7 1.9 2.1zm-428.4 1.5c2.2 3.9 2.2 4 .3 5-3.1 1.7-3.7 1.4-5.6-3-1.6-3.5-1.7-4.2-.4-5 2.5-1.5 3.5-1 5.7 3zm-6.2 5.4c1.4 2.6 1.3 2.8-1.1 3.9-1.4.6-2.7.9-2.8.7-.2-.2-1.3-2.1-2.5-4.1l-2.1-3.8 2.2-1.5c2.4-1.7 3.2-1.1 6.3 4.8zm441.1-4.1c1 .8-.5 4.7-3.3 8.6-.1.2-1.2.1-2.3-.3-2.6-.8-2.6-2.5 0-6.9 2-3.4 2.7-3.6 5.6-1.4zm-448.1 8c1.3 2.5 1.2 2.8-.5 3.8-1.1.5-2.4 1-2.9 1-.9 0-5.7-7.9-5.1-8.4 3.8-3.1 5.3-2.5 8.5 3.6zm454.8-4.7c1.7 1.3 1.7 1.5-.5 5.4-2.4 4.4-3.4 4.8-6.1 2.8-1.6-1.2-1.5-1.6.8-5.5 2.8-4.6 3.1-4.8 5.8-2.7zM289.5 123c1.6 3.6 1.7 4.3.4 5.1-2.4 1.5-3.3 1-5.6-3.1l-2.1-4 2-1.5c2.7-1.8 3-1.5 5.3 3.5zm469.8-3.6c1.8 1.4 1.7 1.6-.9 5.5-2.9 4.5-3.6 4.8-5.3 2.7-1-1.1-.8-2.3.9-5.5 2.2-4.5 2.6-4.7 5.3-2.7zm8.1 5.4c.6 1-4.1 8.2-5.2 8.2-.5 0-1.6-.6-2.6-1.3-1.8-1.3-1.7-1.6.8-5.5 2.3-3.6 2.9-4.1 4.6-3.2 1 .5 2.1 1.4 2.4 1.8zm-484.6 2.1c2.2 3.9 2.2 4 .3 5-2.7 1.5-2.5 1.6-5.5-2.9-2.4-3.6-2.4-4-.8-4.9 2.8-1.7 3.7-1.3 6 2.8zm-7 3.6c2.7 4.2 2.7 4.7.2 6.2-1.7 1.1-2.2.9-4.5-2.1-2.8-3.7-3-4.7-1.3-6.4 1.9-1.9 3.1-1.4 5.6 2.3zm497.3-2.5c1.8 1 1.8 1.2-.7 5-2.8 4.2-4.4 4.9-6.3 2.6-1-1.1-.7-2.2 1.1-5 2.5-3.9 3-4.1 5.9-2.6zm-504.3 6.5c2.7 4.3 2.7 5.1.2 6.5-1.7.9-2.3.5-4.7-3.1-2.6-4-2.7-4.2-.8-5.5 2.6-1.9 2.7-1.9 5.3 2.1zm510.3-2.5c2.5 1.4 2.4 2.5-.7 6.5-2.2 3-2.8 3.3-4.5 2.2-2.4-1.5-2.4-2 .4-6.2 2.5-4 2.2-3.8 4.8-2.5zm-516.6 7.6c2.7 3.5 2.7 3.7 1 5-2.6 2-2.9 1.8-6-2.2-2.7-3.5-2.7-3.7-1-5 2.6-2 2.9-1.8 6 2.2zm524.4-2.2c1 1.1.7 2.2-1.1 5-2.5 3.9-3.4 4.2-6 2.2-1.6-1.2-1.5-1.5.8-4.9 2.6-3.9 4.4-4.6 6.3-2.3zm-531.2 6.7c2.6 4 2.7 4.2.8 5.5-2.6 1.9-2.9 1.9-5.9-2.4l-2.6-3.7 2.1-1.8c1.2-.9 2.3-1.7 2.5-1.7.2 0 1.6 1.9 3.1 4.1zm537.6-2.3c1.5 1.7 1.5 2.1-1 5.5-2.9 4.1-3.1 4.2-5.6 2.3-1.8-1.4-1.7-1.6.9-5.5 3-4.6 3.4-4.8 5.7-2.3zM251 152.6c0 .6-.7 1.8-1.6 2.5-1.4 1.1-2 .8-4.5-2.1-3.4-4.1-3.5-4.8-1.1-6.6 1.5-1.2 2-1 4.5 1.8 1.5 1.8 2.7 3.7 2.7 4.4zm549.3-5.4c.8 1.1.3 2.5-1.7 5.1-2.4 3.1-3 3.5-4.7 2.4-2.5-1.5-2.4-2.3.7-6.4 2.7-3.5 4.1-3.8 5.7-1.1zm-557.9 6.2c3.1 4.1 3.2 4.8.7 6.3-1.6 1-2.3.7-4.9-2.6-2.8-3.5-2.9-3.9-1.4-5.5 2.2-2.2 2.6-2.1 5.6 1.8zm564-1.9c1.8 1.4 1.8 1.5-.8 5-2.9 3.8-4.7 4.3-6.6 2-.9-1.1-.6-2.1 1.5-5 3.1-3.9 3.3-4 5.9-2zm-570 7.1 2.8 3.6-2 2-2 2-3.1-3.3c-3.5-4-3.7-4.7-1.3-6.5 2.4-1.8 2.3-1.8 5.6 2.2zm576.6-2.1c1 1.2.8 2.1-1.4 5-2.9 3.7-4.7 4.3-6.5 2.2-.8-1.1-.4-2.2 1.7-5 3-4 4.3-4.5 6.2-2.2zm-583.1 7.4 3.1 3.8-2.1 1.9c-2 1.8-2.1 1.8-5-1.6-3.2-3.9-3.5-5-1.7-6.8 1.8-1.8 2.4-1.5 5.7 2.7zm589.4-2.2c1.4 1.7 1.3 2.1-1.6 5.5-3.1 3.7-3.2 3.7-5.5 2l-2.3-1.8 2.8-3.6c3.2-4.2 4.3-4.6 6.6-2.1zM226 172.6c0 .6-.7 1.8-1.6 2.5-1.5 1.2-2.1.9-5.1-2.6l-3.4-4 2.2-1.8c2.2-1.7 2.3-1.7 5 1.5 1.6 1.8 2.8 3.8 2.9 4.4zm599.3-5.8c1.5 1.7 1.4 2-1.4 5.5-2.6 3.2-3.2 3.5-5 2.4-2.5-1.5-2.4-2.2.7-6.3 3-3.9 3.5-4.1 5.7-1.6zM217.5 174c2.4 2.5 2.7 3.4 1.9 4.8-1.8 2.7-3.7 2.3-6.8-1.4-2.8-3.4-2.8-3.5-1-4.9 2.6-1.9 2.6-1.9 5.9 1.5zm614.5-1.5c.9 1.1.6 2.1-1.7 5-3 3.7-4.9 4.1-6.7 1.3-.8-1.4-.5-2.3 1.9-4.8 3.2-3.3 4.7-3.7 6.5-1.5zm-620.6 7.1c2.9 3.5 2.9 3.5 1 5.5-2 1.9-2 1.9-5.4-1.6-3.3-3.4-3.3-3.5-1.5-5.5 2.3-2.6 2.4-2.5 5.9 1.6zm625.9-1.8c1.6 1.7 1.5 2-1.8 5.2s-3.6 3.3-5.2 1.8c-1.5-1.6-1.4-1.9 1.3-5.2 3.4-4.1 3.6-4.1 5.7-1.8zm6.2 5.2c1.8 2 1.8 2.2-1.8 5.7-3.5 3.6-3.7 3.6-5.6 1.8-2.1-1.8-2.1-1.8 1.2-5.6 1.7-2 3.5-3.8 3.8-3.8.3-.1 1.4.8 2.4 1.9zm-637.7 2.3 3.2 3.3-2 1.9c-2 1.8-2.1 1.8-5.5-1.5-3.3-3.2-3.4-3.5-1.8-5.2 2.1-2.4 2.4-2.3 6.1 1.5zm-5.8 5.2c3.3 3.4 3.3 3.5 1.5 5.5l-1.9 2.1-3.8-3.8c-3.5-3.4-3.7-3.8-2.1-5.5 2.2-2.4 2.4-2.3 6.3 1.7zm649.3-1.7c1.6 1.7 1.5 2-1.8 5.2-2.9 2.8-3.7 3.1-5 2-2.1-1.8-1.9-3 1.2-6.2 3.2-3.3 3.5-3.4 5.6-1zM194 196.5c2.8 2.9 3.1 3.7 2 5-1.8 2.1-3 1.9-6.2-1.2-3.1-2.9-3.4-4.3-1.6-6.1 1.7-1.7 2-1.6 5.8 2.3zm661.4-1.2c.9 1.3.4 2.3-2.1 4.9-3.2 3.1-3.3 3.2-5.3 1.3l-2-1.9 3.2-3.3c3.4-3.5 4.5-3.7 6.2-1zm-666.6 7 3.2 3.3-2 1.9c-2 1.8-2.1 1.8-5.3-1.1-1.7-1.6-3.4-3-3.6-3.1-.6-.4 3-4.3 3.9-4.3.3 0 2.1 1.5 3.8 3.3zm672.3-1.7c1.1 1.3.7 2.1-2.4 5.1-3 3.1-3.8 3.5-5.1 2.4-2.2-1.9-2-3.1 1.1-6.3 3-3.2 4.5-3.5 6.4-1.2zm-678.3 7.7c3.1 3.2 3.2 3.4 1.5 4.9-1.7 1.5-2 1.4-5-1.3-3.6-3.2-3.9-3.9-2.1-5.7 1.7-1.7 2-1.6 5.6 2.1zm683.5-1.2c.8 1.3.3 2.3-2.4 4.7-3.4 3.1-3.4 3.1-5.4 1.2-1.9-1.9-1.9-2 1-5 3.1-3.3 5.1-3.5 6.8-.9zM178 214l3.4 3-2.2 2.2-2.2 2.2-3.4-3.3c-2.9-2.9-3.3-3.6-2.3-5.2 1.6-2.5 2.6-2.4 6.7 1.1zm694.1-1.4c1.1 1.3.7 2.1-2.4 5.2l-3.7 3.7-2.2-2.3-2.2-2.2 3.4-3c4-3.4 5.2-3.6 7.1-1.4zm-700.4 7c3.6 2.7 4.1 4.5 1.8 6.4-1.1.9-2.1.6-5-1.7-3.7-3-4.2-4.2-2.3-6.1 1.6-1.6 1.6-1.6 5.5 1.4zm705.7-.3c.9 1.3.4 2.2-2.4 4.6-4.2 3.6-4.2 3.6-5.9.9-1.3-2-1.1-2.4 2-5 3.6-3 4.7-3.1 6.3-.5zM167 226.1c2.9 2.4 3.3 3.2 2.4 4.7-1.7 2.6-3.6 2.4-7.1-.6-3.1-2.7-3.2-2.9-1.7-5 1.9-2.8 2.2-2.7 6.4.9zm715.4-1.2c1.6 1.8 1.5 2-2.1 5-2.1 1.7-4 3.1-4.3 3.1-.3 0-1.1-1-1.8-2.1-1.2-1.9-1-2.4 2-5 4-3.4 4-3.4 6.2-1zm5.2 6.2c1.8 2 1.8 2.1-1.6 5-4.2 3.4-5.6 3.6-7 .9-.9-1.7-.5-2.5 2.2-5 4-3.5 4-3.5 6.4-.9zM162 232.9c3.3 2.7 3.4 3.1 1.9 4.6-1.3 1.3-2.1 1.5-3.5.6-4.4-2.5-5.6-4-4.9-6 .9-2.8 2.4-2.6 6.5.8zm-5.3 5.7c3.7 2.8 3.8 3.1 1.8 5.7-1.3 1.8-1.5 1.8-4.9-1-3.8-3-4.3-4.2-2.4-6.1 1.6-1.6 1.6-1.6 5.5 1.4zm736-.7c1.1 1.7.8 2.3-2.2 4.5-3.9 3-4.8 3.2-6.6 1-1.1-1.4-.8-2 2.1-4.5 4.1-3.4 5.1-3.5 6.7-1zM152 245c2.9 2.4 3.3 3.2 2.4 4.6-1.6 2.7-2.7 2.6-6.3-.4-3-2.5-3.2-3.1-2.2-5 1.5-2.8 1.9-2.8 6.1.8zm745.4-.6c.9 1.4.5 2.2-2.4 4.6-4.2 3.5-4.6 3.6-6.1.8-1-1.9-.8-2.5 2.2-4.9 3.7-3.1 4.7-3.2 6.3-.5zm-750.2 7.2c3.6 2.5 3.6 2.7 2.2 5l-1.6 2.3-3.9-2.6c-4.4-2.9-4.3-2.7-2.9-5.4 1.4-2.4 1.7-2.4 6.2.7zm754.6-1.4c2 2 1.4 3.3-2.4 6.1l-3.7 2.6-1.8-2.2c-1.8-2.2-1.8-2.2 1.4-4.9 3.6-3.1 4.8-3.3 6.5-1.6zm-759.5 8c1.8 1.2 3.3 2.3 3.5 2.4.7.5-1.9 4.4-2.9 4.4-.6 0-2.6-1.2-4.4-2.6-2.9-2.2-3.3-2.9-2.4-4.5 1.3-2.4 2.4-2.4 6.2.3zm764.8-.6c1.2 1.4.9 2-2.1 4.5-4.1 3.5-5.1 3.6-6.9.7-1.1-1.8-1.1-2.2 0-2.9.8-.4 2.3-1.5 3.4-2.3 2.6-2 3.9-2 5.6 0zm-766.6 9.8c.7 1.1.5 2-.6 3.2-1.5 1.5-1.9 1.4-5.3-.8-3.9-2.5-4.1-3-2.5-5.9 1-2 1-2 4.2 0 1.8 1.1 3.6 2.7 4.2 3.5zm771.5-1.8c0 .7-1.7 2.5-3.7 3.9-3.5 2.3-3.9 2.4-5 .8-1.9-2.5-1.7-3 2.4-5.7 3.7-2.6 6.3-2.2 6.3 1zm-778.7 5.9c4.1 2.8 4.2 3.2 2.3 5.7-1.2 1.6-1.5 1.5-5.2-.9-2.1-1.4-4-2.7-4.2-2.9-.5-.3 2.2-4.4 2.8-4.4.3 0 2.2 1.1 4.3 2.5zm782.7-.6c1.4 2.7 1.4 2.7-2.6 5-4.3 2.6-5.1 2.6-6.4.1-.9-1.6-.5-2.3 2.7-4.5 4.5-3 4.9-3.1 6.3-.6zm-787 7.3c4.5 2.6 4.5 2.7 2.7 5.2-1.5 2.1-3.8 1.7-7.6-1.3-2-1.5-2.2-2.1-1.2-3.9 1.4-2.7 1.3-2.7 6.1 0zm790.8-1c1.9 1.9 1.4 3.1-2.3 5.5-4.2 2.8-4.7 2.8-6.2.3-1.1-1.7-.9-2.2 2.4-4.5 4.3-2.9 4.5-2.9 6.1-1.3zm-794.7 8.4c3.5 2.2 3.9 2.7 2.8 4.2-.8.9-1.4 1.8-1.5 2-.1.2-1.5-.3-3.1-1.2-5.4-2.9-5.6-3.2-4.4-5.5 1.4-2.6 1.3-2.6 6.2.5zm799.4-.5c.4 1.1.5 2.2.3 2.3-4.1 3-7.6 4.4-8.6 3.4-2-2-1.4-3.7 2.1-5.8 4.1-2.5 5.4-2.5 6.2.1zm4.5 8.6c0 .7-1.8 2.2-3.9 3.3-3 1.5-4.1 1.7-4.9.7-2.1-2.5-1.6-3.8 2.3-6.1 3.6-2.1 4.1-2.1 5.3-.8.6.9 1.2 2.2 1.2 2.9zm-807.9-1.5c4.4 2.4 4.4 2.5 2.4 5.2-1.4 1.9-1.5 1.9-5.1 0-4.4-2.4-4.8-2.9-3.4-5.4 1.3-2.5 1.4-2.5 6.1.2zm-3.8 7.3c4.2 2.1 4.3 2.3 2.3 5-1.4 1.9-1.5 1.9-5.1 0-2-1.1-3.9-2.3-4.1-2.7-.6-1 1.5-5 2.4-4.6.4.2 2.4 1.2 4.5 2.3zm815.1-.9c.3.9.6 2 .6 2.5 0 .9-8 5.3-8.4 4.7-2.5-3.1-2.3-4.3 1.2-6.5 4.4-2.7 5.8-2.8 6.6-.7zm-819.1 7.9c4.1 2.1 4.3 2.4 2.4 4.9-1.3 1.7-1.5 1.7-5.5-.3-2.3-1.2-4.2-2.4-4.2-2.6 0-1 2.5-4.5 3-4.2.3.1 2.2 1.1 4.3 2.2zm822.7-.6c1.4 2.8 1.4 2.8-3.1 5.1-3.9 2.1-4.1 2.1-5.5.3-1.9-2.5-1.8-2.7 2.4-5.1 4.6-2.7 4.9-2.7 6.2-.3zm-823 10.2c0 .6-.5 1.9-1 3-1.1 1.9-1.1 1.9-5-.1-4.9-2.5-5.3-3.2-3.4-5.8l1.5-2.2 4 2c2.1 1.1 3.9 2.5 3.9 3.1zm826.8-2.6c1.1 2.3.9 2.6-3 4.6-4 2-4.2 2.1-5.5.3-1.9-2.6-1.7-3.2 2.5-5.3 4.7-2.6 4.7-2.6 6 .4zM106.1 321c3.4 1.8 3.8 2.3 2.9 4-1.3 2.4-2 2.5-6.5.3-3.7-1.7-3.9-2.1-2.9-4.7.8-2.1 1.7-2 6.5.4zm837.3-.4c1 2.6.8 3-2.9 4.7-4.5 2.1-4.8 2.1-6.3-.3-1.1-1.8-.9-2.2 2-4 4-2.4 6.4-2.5 7.2-.4zM102.3 328c3.7 1.4 4.5 3.2 2.7 6-.8 1.2-1.5 1.1-5.4-.8-4.3-2-4.5-2.3-3.4-4.7.6-1.4 1.4-2.4 1.7-2.3.3.2 2.3 1 4.4 1.8zm844.7.1c1.4 2.5 1.2 2.7-4 5-3.9 1.7-4 1.7-5-.1-1.5-2.9-1.3-3.5 2.3-5.3 4.3-2.1 5.4-2.1 6.7.4zm4 9.1c0 .4-1.9 1.7-4.2 2.9-4 2-4.2 2-5.5.3-2-2.7-1.7-3.2 3-5.2 3.8-1.8 4.3-1.8 5.5-.4.6.9 1.2 1.9 1.2 2.4zm-851.5-1.5c2.8 1.3 3.4 2.1 2.9 3.7-1 3.1-1.1 3.1-6 .8-3.9-2-4.3-2.4-3.4-4.2 1.3-2.4 2-2.5 6.5-.3zm-3.5 6.9c3.4 1.4 4 2 3.4 3.8-.9 3-.8 2.9-5.1 1.6-5-1.6-5.7-2.4-4.4-4.9 1.4-2.5 1.1-2.5 6.1-.5zm857.5.5c.8 2.4.2 3.1-4.4 4.9-3 1.2-3.5 1.2-4.7-.5-2-2.7-1.8-3.1 2.4-4.8 5-2.1 5.9-2.1 6.7.4zm-857.2 8.8c.5.5.4 1.8-.2 2.9-1.1 2-1.2 2.1-5.6.4-4.8-1.7-5.1-2.2-3.5-5.3 1-1.8 1.3-1.8 4.8-.3 2 .8 4.1 1.9 4.5 2.3zm860.7.6c0 1.3-7.8 4.7-9 4-.4-.3-1-1.4-1.3-2.6-.5-1.7.2-2.4 3.6-3.9 3.8-1.6 4.3-1.6 5.5-.2.6.9 1.2 2.1 1.2 2.7zm-865.7 5.7c2.8 1 3.3 2.3 1.8 4.7-.8 1.3-1.5 1.3-5.1.1-4.9-1.6-5.4-2.3-4-5.1.8-1.4 1.7-1.8 2.8-1.4.9.4 2.9 1.2 4.5 1.7zm868.2-.1c.8 2.4.2 3.1-4.4 4.9-3 1.2-3.5 1.2-4.7-.5-2-2.7-1.8-3.1 2.4-4.8 5.1-2.1 6-2 6.7.4zm-872.4 7.1c3.9 1.1 4.8 2.8 3 5.7-.7 1.1-1.5 1.1-4.7 0-5.2-1.8-5.8-2.3-4.5-4.8 1.4-2.5 1.2-2.4 6.2-.9zm874.9-.3c0 .5.3 1.6.6 2.4.4 1.1-.8 1.9-4 3-4.3 1.5-4.7 1.5-5.6-.3-1.5-2.7-1.3-3 2.3-4.5 3.7-1.6 6.7-1.9 6.7-.6zm2.9 8.3c1.1 2.8.7 3.2-4.3 4.8-3.2 1-4 1-4.7-.1-1.6-2.5-.9-3.7 2.9-5.2 4.9-2.1 5.1-2.1 6.1.5zm-879.4.2c3.2 1.4 3.4 1.7 2.4 3.9-1.1 2.5-1.2 2.5-5.5 1-4.5-1.5-4.9-2-3.8-4.7.8-2 2.5-2 6.9-.2zm-4 7c4 1.4 5.2 3.1 3.7 5.3-.6 1-1.7 1-4.7.2-5.2-1.4-5.9-2.2-4.6-4.8.7-1.2 1.3-2.1 1.4-2.1.1 0 2 .7 4.2 1.4zm885.7.1c0 .8.1 2 .2 2.6.1.7-1.8 1.7-4.2 2.4-3.9 1.2-4.3 1.1-5.3-.7-1.3-2.3-.8-2.9 3.4-4.5 4.4-1.6 5.7-1.6 5.9.2zm-886.7 7.9c2.7 1.1 3.2 1.9 2.8 3.5-.8 3-1.6 3.2-5.4 2-4.5-1.5-5.2-2.3-4.4-4.8.8-2.5 2.3-2.6 7-.7zm889 1.5c0 1.9-.8 2.6-4.2 3.6-3.5 1.1-4.3 1-4.7-.2-1.1-2.8-.6-4.1 2.2-5.2 4.3-1.6 6.7-1 6.7 1.8zm-892.2 6.2c2.9.8 3.7 1.5 3.7 3.4 0 3.2-1 3.6-5.4 2.3-4-1.3-5.2-2.8-4.2-5.3.6-1.8 1-1.8 5.9-.4zm895 .9c.6 2.4-1.6 3.8-6.5 4.2-2.7.3-3.4-.1-3.6-1.9-.3-1.8.4-2.4 3-3.2 5.1-1.4 6.5-1.3 7.1.9zm2.1 8.6c.6 1.9.1 2.3-4 3.3-3.8 1-4.9 1-5.5-.1-1.9-2.9-.9-4.5 3.4-5.5 4.6-1 5.2-.8 6.1 2.3zm-899.1-1.5c2.6.7 3.7 1.6 3.7 2.9 0 2.7-1.4 3.2-6 2-2.8-.7-4-1.6-4-2.9 0-3.3.8-3.6 6.3-2zm-1 7.6c3.4.7 3.7 1.2 2.6 4.1-.6 1.6-1.5 2.2-2.6 1.9-1-.3-3-.8-4.5-1.1-2.1-.5-2.8-1.2-2.8-3 0-2.8.9-3.8 2.9-3.1.9.4 2.8.9 4.4 1.2zm902.1 2c.6 1.9.2 2.2-4.1 3.1-5 1.1-6.3.5-6.3-2.9 0-1.1 1.4-1.9 4.3-2.6 4.6-1 5.2-.8 6.1 2.4zm1.6 7.7c0 1.8-.7 2.5-3.1 3-5.6 1.1-6.9.8-6.9-1.8 0-1.9.7-2.5 4.3-3.3 5-1.1 5.7-.9 5.7 2.1zm-905-1.5c1.9.6 2.4 1.3 2.2 3.2-.2 1.3-.5 2.5-.7 2.7-.1.2-2.3-.2-4.9-.9-3.2-.8-4.6-1.6-4.6-2.9 0-3.1 2.3-3.7 8-2.1zm.5 11c-.4 1.4-.7 2.7-.8 2.8-.1.1-2.3-.4-5-1-4.9-1.1-5.3-1.6-3.7-4.6.8-1.6 1.5-1.7 5.5-.8 4.3 1 4.6 1.2 4 3.6zm906.1-2.4c.8 3.2.9 3.2-4.7 4-4.3.6-4.7.5-5.2-1.6-.8-2.8-.6-2.9 3.5-3.9 5.3-1.3 5.7-1.1 6.4 1.5zM71.3 436c.4 0 .7 1.1.7 2.4 0 3.2-.6 3.5-5.7 2.4-3.5-.8-4.3-1.3-4.3-3.2 0-3.2.6-3.5 4.8-2.5 2 .5 4 .9 4.5.9zm910 .6c.5 2.9-.1 3.3-5.8 3.7-3.5.2-4-.1-4.3-2-.3-1.7.3-2.4 2.5-2.9 1.5-.3 3.3-.7 3.8-.9 2.4-.8 3.3-.3 3.8 2.1zm-911 7.4c.5 0 .7 1 .5 2.2-.3 2-.9 2.3-4.6 2.2-5-.1-6.3-1.1-5.2-4.1.8-1.9 1.3-2 4.7-1.2 2.1.5 4.2.9 4.6.9zm912.1.2c.7 2.9 0 3.6-5 4.4-3.7.5-4.2.4-4.7-1.7-.8-2.8-.6-2.9 3.5-3.9 5.1-1.2 5.5-1.1 6.2 1.2zm-912.9 8c1 1-.9 4.8-2.5 4.8-4.4 0-8-1.3-8-2.9 0-2.9 1.9-3.9 6.1-3.1 2.2.4 4.2.9 4.4 1.2zm914.3 1.1c.3 2.1-.1 2.7-1.6 2.7-1.1 0-3.4.3-5.1.6-2.9.6-3.1.5-3.1-2.4 0-2.8.3-3.1 3.8-3.5 5.3-.5 5.7-.4 6 2.6zm1 8c.3 2.1-.1 2.7-1.6 2.7-1.1 0-3.4.3-5.1.6-2.9.6-3.1.5-3.1-2.4 0-2.8.3-3.1 3.8-3.5 5.3-.5 5.7-.4 6 2.6zm-918.2-1.7c1.6.4 2 1.1 1.6 3-.5 2.5-1.7 2.8-7.1 1.8-2.4-.5-3.1-1.2-3.1-3 0-2 .5-2.4 3.3-2.4 1.7 0 4.1.3 5.3.6zm919.2 9.7c.3 2.5 0 2.7-3.2 2.8-2 .1-4.2.2-4.8.3-.7.1-1.4-1.1-1.6-2.6-.3-2.4 0-2.7 3.5-3.1 5.4-.5 5.8-.4 6.1 2.6zm-918.6.7c-.5 3.3-.4 3.2-5.6 2.5-4-.6-4.6-1-4.6-3.2 0-2.3.3-2.4 5.3-2.1 4.9.3 5.2.4 4.9 2.8zm919.6 7.2c.3 2.7-1.6 3.8-7 3.8-2.4 0-2.8-.4-2.8-2.9 0-2.7.4-3 3.8-3.4 5.3-.5 5.7-.3 6 2.5zM66.5 476c.3.6.3 2 0 3.1-.6 1.9-1.2 2-5.3 1.4-5.6-.8-5.6-.8-4.7-3.4.5-1.7 1.5-2.1 5-2.1 2.4 0 4.7.5 5 1zm-.5 10c0 2.9-.1 3-5 3s-5-.1-5-3 .1-3 5-3 5 .1 5 3zm921.8-.4c.3 2.3-1.9 3.4-6.9 3.4-1.9 0-2.8-.6-3.2-2.2-.9-3.3 0-3.9 5.1-3.6 3.9.2 4.8.7 5 2.4zm-924.4 6c.9.3 1.6 1.7 1.6 3 0 2.2-.4 2.4-4.5 2.4-4.7 0-6.3-1.4-5.1-4.5.5-1.5 5.1-2 8-.9zm924.6 1.8c0 2.7-1.6 3.6-6.6 3.6-3.1 0-3.4-.3-3.4-3 0-2.9.1-3 5-3 4.6 0 5 .2 5 2.4zm-924.6 6.2c.9.3 1.6 1.7 1.6 3 0 2.2-.4 2.4-5 2.4-4.9 0-5-.1-5-3 0-2.7.3-3 3.4-3 1.9 0 4.1.3 5 .6zm925.1 1.4c1 3.1-.2 4-5.1 4-3 0-4.6-.5-5-1.5-1.2-3.1.4-4.5 5-4.5 3.6 0 4.6.4 5.1 2zm-924 9c0 2.2-.5 2.5-4.4 2.8-5.1.4-6.3-.4-5.4-3.6.5-2 1.1-2.3 5.2-2 4.2.3 4.6.5 4.6 2.8zm924.3-.3c-.3 2.4-.8 2.7-5 3-4.8.4-4.8.4-4.8-2.6 0-3.1.1-3.1 5.1-3.1 4.9 0 5 .1 4.7 2.7zM64 518c0 2.9-.2 3-4.5 3-4.7 0-6.3-1.4-5.1-4.5.4-1 2-1.5 5.1-1.5 4.3 0 4.5.1 4.5 3zm925 0c0 2.9-.1 3-5 3s-5-.1-5-3 .1-3 5-3 5 .1 5 3zm-.2 8.3c.3 2.6.2 2.7-4.7 2.7-5 0-5.1 0-5.1-3.1 0-3 0-3 4.8-2.6 4.2.3 4.7.6 5 3zm-924.8.1c0 2-.6 2.4-4.2 2.9-5.1.7-5.8.3-5.8-2.9 0-2.2.4-2.4 5-2.4s5 .2 5 2.4zm.8 8.3c.3 1.7-.2 2.3-1.6 2.3-1.1 0-3.3.3-4.9.6-2.7.5-3.1.3-3.5-2-.7-3.4-.2-3.7 5.2-3.4 3.8.3 4.5.6 4.8 2.5zm924 0c-.2 1.6-.6 2.7-1 2.5-.5-.1-2.6-.2-4.8-.2-3.6 0-4-.3-4-2.5 0-2.3.3-2.5 5.1-2.5 4.9 0 5 .1 4.7 2.7zM65 542.5c0 2.1-.5 2.5-2.7 2.5-1.6 0-3.8.3-5 .6-2 .6-2.3.3-2.3-2.5 0-3.1.1-3.1 5-3.1 4.7 0 5 .2 5 2.5zm923.5 0c0 1.6-.8 2.1-4.4 2.3-4.8.4-6.7-.8-5.7-3.3.4-1.2 1.7-1.5 5.3-1.3 4 .3 4.8.6 4.8 2.3zm-.5 8.1c0 2.2-.4 2.4-5 2.4s-5-.2-5-2.3c0-3.2.2-3.3 5.4-2.9 4.1.4 4.6.7 4.6 2.8zm-923-.2c0 2-.6 2.4-4.2 2.9-5.1.7-5.8.3-5.8-2.9 0-2.2.4-2.4 5-2.4s5 .2 5 2.4zm922.9 6.2c.2.2 0 1.5-.3 3-.7 2.5-.9 2.6-5.4 1.9-2.6-.4-4.8-.8-5-1-.2-.1 0-1.4.4-2.8.6-2.5.9-2.6 5.3-2 2.5.3 4.8.7 5 .9zM66 558.5c0 2.1-.5 2.5-2.7 2.5-1.6 0-3.8.3-5 .6-2 .6-2.3.3-2.3-2.5 0-3.1.1-3.1 5-3.1 4.7 0 5 .2 5 2.5zm.4 7.1c.9 3.3.6 3.5-4.7 4.1-4 .5-4.6.3-5.2-1.7-.9-2.8.1-3.8 4.5-4.3 1.9-.2 3.8-.5 4.1-.5.4-.1 1 1 1.3 2.4zm920.6.8c0 3.2-1.1 3.8-5.9 3-3.5-.6-4.1-1-4.1-3 0-2.2.4-2.4 5-2.4s5 .2 5 2.4zm-1 8.7c0 3.1-.4 3.2-6.2 2.3-3.1-.5-3.8-1.1-3.8-2.9 0-3 .2-3.1 5.4-2.7 4.3.4 4.6.6 4.6 3.3zm-918.7-.9c.8 2.9.7 2.9-4.9 3.1-4 .2-4.9-.1-5.2-1.7-.5-2.4 1.4-3.6 5.9-3.6 2.9 0 3.8.4 4.2 2.2zm917.5 9.2c.3 2.8.2 2.9-2.8 2.2-1.8-.3-4.1-.6-5.1-.6-1.3 0-1.9-.7-1.9-2.3 0-3.2.4-3.4 5.2-2.8 3.8.5 4.3.9 4.6 3.5zm-916.5-1.2c.8 2.9.7 2.9-4.9 3.1-4 .2-4.9-.1-5.2-1.7-.5-2.4 1.4-3.6 5.9-3.6 2.9 0 3.8.4 4.2 2.2zm914.5 6.4c1.4.4 1.6 4 .3 4.9-.6.3-2.8.3-5-.1-3.4-.5-4.1-1.1-4.1-2.9 0-1.2.3-2.4.6-2.8.6-.5 5.1-.1 8.2.9zm-913.3 1.5c.9 2.6.7 2.8-4.7 3.5-4.1.6-4.7.4-5.3-1.6-.9-2.8.7-4 5.7-4 2.8 0 3.8.5 4.3 2.1zm1.5 9c0 1.6-3.7 2.9-8 2.9-2.1 0-3.3-3.5-1.6-4.9 1.6-1.3 8-1.8 8.8-.6.4.5.8 1.7.8 2.6zm911.3-2.1c.5.5.6 1.8.2 3-.6 1.9-1.1 2.1-4.8 1.5-5.4-.9-5.5-1-5-4 .5-2.3.8-2.4 4.7-1.9 2.2.4 4.5 1 4.9 1.4zm-910.5 9.2c.3 2.1-.2 2.6-2.9 3.2-5.7 1.1-6.9.8-6.9-1.9 0-1.9.7-2.6 2.8-3.1 1.5-.3 3.2-.7 3.7-.9 2-.7 3 .2 3.3 2.7zm908.8-1.7c.7.2.9 1.5.6 3-.4 2.5-.7 2.6-4.6 2-2.2-.4-4.4-.9-4.8-1.2-1-.5-1-3.7-.1-4.6.6-.6 5.8-.2 8.9.8zm-907.2 8.1c1.2 3.2.5 4.1-4 5.1-4.4 1-4.6 1-5.5-1.5-.5-1.3-.8-2.6-.6-2.8.3-.3 6.8-2 8.8-2.3.4-.1 1 .6 1.3 1.5zm905.9.1c1 .6.9 4.1-.2 4.8-.9.5-8.8-.9-9.6-1.7-.2-.2-.2-1.4.2-2.7.5-2 1-2.2 4.7-1.5 2.2.3 4.4.8 4.9 1.1zm-904 8.5c.8 2.8.7 2.8-4.3 3.9-4.7 1.1-6 .6-6-2.1 0-1.3.9-2.2 2.8-2.6 1.5-.3 3.2-.7 3.7-.9 2.4-.8 3.3-.4 3.8 1.7zm902.7-.7c1.1.7-.1 5.5-1.4 5.5-.6 0-2.8-.5-4.8-1.1-3.7-1-5-3.4-3-5.3.7-.7 7.7 0 9.2.9zm-1.8 10.6c-.5 3.2-.5 3.1-4.4 2.4-5-1-6-1.8-5.3-4.7.6-2.5.7-2.5 5.3-1.4 4.1 1.1 4.7 1.5 4.4 3.7zM77 629.4c0 1.9-.8 2.7-3.5 3.6-4.5 1.5-6.7.7-6.3-2.2.3-2.2 2.9-3.5 7.6-3.7 1.7-.1 2.2.4 2.2 2.3zm1.8 8.3c-.2 2.2-1 2.9-3.8 3.5-4.6 1-6 .4-6-2.6 0-2.5 1.2-3 7.8-3.5 2-.1 2.3.3 2 2.6zm895.5-.8c.5.5.4 1.8-.2 2.9-1 1.8-1.5 1.9-4.8 1-4.7-1.2-5.8-2.2-4.9-4.4.5-1.3 1.4-1.5 4.9-1 2.3.4 4.6 1.1 5 1.5zm-893.1 8.5c.2 1.6-.6 2.2-4.1 3.3-3.6 1-4.7 1-5.3 0-1.5-2.3-.3-4.1 3.7-5.3 4.3-1.2 5.2-.9 5.7 2zm890-1.3c1.2.7 1.5 1.5 1 3-.9 2.3-1 2.3-5.7 1.5-4-.8-4.9-1.8-4-4.7.6-1.7 1.2-1.9 3.8-1.3 1.8.3 4 1 4.9 1.5zm-887.8 8.1c.7 2.7.2 3.2-4.7 4.8-4.4 1.4-4.3 1.4-5.2-2.1-.6-2.4-.3-2.8 3.2-3.7 5.6-1.5 6-1.4 6.7 1zm882.9-1.1c3.7 1 4.6 2.9 2.9 5.6-.6 1-1.6 1-4.6.1-4-1.3-5.2-2.8-4.2-5.3.6-1.8 1-1.8 5.9-.4zm-880.9 8.5c1.1 2.7.7 3.2-3.9 4.8-4.5 1.5-4.6 1.5-5.4-.7-1.1-2.8-.7-3.5 3.2-4.6 4.6-1.3 5.4-1.3 6.1.5zm878.9-.5c3.7 1 4.4 2.2 2.8 4.8-1.3 2-10.5-.5-9.7-2.6.4-.8.6-1.9.6-2.4 0-1.2 1.6-1.1 6.3.2zm-876.4 8.1c1.1 2.8.7 3.2-4.3 4.8-3.2 1-4 1-4.7-.1-1.6-2.5-.9-3.7 2.9-5.2 4.9-2.1 5.1-2.1 6.1.5zm874.2-.4c3.3 1.5 3.6 2 2.8 4-.7 1.9-1.4 2.2-3.1 1.6-7-2.1-7.5-2.5-6.2-5.8.8-2 2-2 6.5.2zm.9 9.8c0 .5-.6 1.8-1.3 2.8-1.2 1.6-1.5 1.6-5.2 0-5-2-4.7-1.7-3.6-4.7l1-2.5 4.5 1.6c2.5.9 4.6 2.2 4.6 2.8zm-872.6-2c1 2.7.7 3.1-3.5 4.8-4.4 1.8-5.5 1.4-6.1-1.8-.2-1.4.6-2.2 3.2-3.2 4.7-1.7 5.7-1.7 6.4.2zm3.6 9.8c0 .6-2.1 1.9-4.6 2.8l-4.5 1.6-1-2.5c-.5-1.4-.8-2.7-.7-2.8.2-.1 2.1-.9 4.3-1.8 3.7-1.4 4.1-1.4 5.3.1.6.9 1.2 2.1 1.2 2.6zm863.3-2.2c2.9 1.1 3.2 1.9 1.7 4.8-1 1.8-1.2 1.8-4.8.4-4.8-2.1-5.2-2.5-4.1-5.3.7-1.7 1.4-2.1 2.7-1.6.9.4 2.9 1.2 4.5 1.7zM96 688.9c0 .5.3 1.6.6 2.4.3 1-.8 2-3.8 3.1-4 1.7-4.3 1.7-5.5 0-1.8-2.5-1.2-3.6 2.8-5 4.2-1.5 5.9-1.7 5.9-.5zm857.4.6c3.6 1.5 4.3 2.9 2.7 5.4-.7 1.1-1.6 1.1-5.5-.4-5.1-2-5-1.9-3.6-4.6 1.3-2.3 1.7-2.3 6.4-.4zM100 699.4c0 .6-1.9 1.9-4.3 2.9-4 1.7-4.3 1.7-5.4 0-2.1-2.8-1.5-3.8 3-5.5 3.8-1.4 4.3-1.4 5.5 0 .6.9 1.2 2.1 1.2 2.6zm850.3-2.4c3.9 1.5 4.5 2.6 2.5 5.2-1.2 1.4-1.7 1.4-5.5-.3-4.1-1.7-4.2-1.9-3.1-4.4.6-1.4 1.4-2.4 1.7-2.3.3.2 2.3 1 4.4 1.8zm-847.8 8.1c.8 2.5 1 2.3-4 4.3-3.7 1.6-4 1.6-5.2 0-1.9-2.6-1.7-3 2.5-4.7 5-2.1 5.9-2.1 6.7.4zm844.9-.6c3.9 1.7 4.2 2.3 2.4 4.7-1.2 1.4-1.7 1.4-5.6-.3-3.8-1.7-4.2-2.1-3.2-3.9 1.3-2.4 1.7-2.4 6.4-.5zm-841.7 7.8c1 2.2.8 2.6-3.2 4.5-3.1 1.5-4.5 1.8-5.4.9-2-2-1.2-4.3 2.2-6 4.4-2.2 5.2-2.1 6.4.6zm838.8-.6c3.9 1.9 4.1 2.2 2.1 4.8-1.3 1.9-1.5 1.9-5.5.1-4.2-2-5-3.3-2.9-5.4 1.6-1.6 2.1-1.5 6.3.5zM109 718.9c1.4 2.8 1.4 2.8-3.2 5.2-4 2-4.2 2-5.5.3-1.9-2.6-1.7-3.2 2.5-5.3 4.7-2.5 4.9-2.5 6.2-.2zm831.8.1c2.7 1.3 4 2.5 3.6 3.3-2.1 3.5-2.5 3.7-6.5 1.7-4-2.1-4.3-2.7-3.3-5.4.8-2 1.2-2 6.2.4zM113 728.5c0 .7-1.8 2-4.1 3-3.5 1.6-4.2 1.7-5 .4-1.6-2.5-1-3.8 2.9-5.8 3.4-1.8 3.8-1.8 5-.3.6.8 1.2 2.1 1.2 2.7zm824-2.5c4.4 2.2 4.6 2.8 2.7 5.4-1.5 2.1-3.8 1.7-7.6-1.3-2-1.5-2.2-2.1-1.2-3.9 1.4-2.7 1.3-2.7 6.1-.2zm-820.6 7.6c1 2.6.8 3-2.9 4.7-4.5 2.2-5.2 2.1-6.5-.3-.9-1.7-.6-2.3 2.2-4 4-2.4 6.4-2.5 7.2-.4zm817.1.1c3.6 1.7 4.1 2.8 2.5 5.3-.8 1.2-1.5 1.1-5.5-.8-4-2-4.4-2.4-3.5-4.2 1.3-2.4 2-2.5 6.5-.3zm-.5 9.6c0 .5-.4 1.7-1 2.7-1 1.8-1.2 1.8-5.5-.7-2.7-1.5-4.2-2.9-3.8-3.6 2-3.6 2.5-3.7 6.4-1.4 2.1 1.2 3.9 2.6 3.9 3zm-813-2.2c.7 1.1 1 2.2.8 2.3-.2.1-2.1 1.3-4.3 2.5-3.7 2.2-4 2.2-5.2.5-1.8-2.5-1.7-3 2-5.3 4.1-2.6 5.4-2.6 6.7 0zm807.7 7.8c2.2 1.1 2.2 1.3.7 3.6l-1.6 2.5-3.9-2.2c-4.2-2.3-4.5-2.9-2.8-5.9.9-1.8 1.3-1.9 3.2-.6 1.2.8 3.2 1.9 4.4 2.6zm-803.7-.8c.7 1.1 1 2.2.8 2.3-.2.1-2.1 1.3-4.2 2.6-3.8 2.3-3.9 2.3-5.2.5-2-2.7-1.8-3.3 1.9-5.5 4.1-2.5 5.4-2.5 6.7.1zm801 9.4a6 6 0 0 1-.9 2.4c-.8 1.2-1.4 1.2-4 .2-4.3-1.8-5.5-3.5-4.2-6 1.1-1.9 1.1-1.9 5.1.2 2.2 1.2 4 2.6 4 3.2zM128 755c.9 1.7.5 2.3-3.2 4.6-3.9 2.5-4.2 2.6-5.5.8-1.9-2.5-1.7-3 2-5.2 4.1-2.6 5.4-2.6 6.7-.2zm789.4 6.1c3.9 2.2 4.3 3.5 2.4 6.2-1.2 1.6-1.6 1.5-5-.8-4-2.7-4.6-4.3-2.6-6.3 1.5-1.5 1.1-1.6 5.2.9zm-785.6.1c1.8 1.8 1.5 2.3-2.7 5.1-3.7 2.5-4 2.5-5.5.8-2.2-2.4-2.1-2.6 1.7-5 3.7-2.4 4.8-2.6 6.5-.9zm4.2 6.7c1.4 2.7 1.5 2.5-2.9 5.4-3 2-4.2 2.3-4.9 1.4-2-2.4-1.6-3.6 1.8-6.1 4.3-3.1 4.7-3.1 6-.7zm777 .3c4.2 2.4 4.9 3.8 2.6 5.7-1.1 1-2.1.9-4.3-.3-5.5-3-5.6-3.1-4.2-5.5 1.7-2.6 1.2-2.6 5.9.1zM140.8 775c1.1 1.8.8 2.3-2.8 4.6-3.3 2.2-4.3 2.4-5.5 1.4-2.3-1.9-1.8-3.3 1.8-5.7 4-2.7 4.9-2.8 6.5-.3zm768.5.2c1.8 1.2 3.3 2.3 3.5 2.4.6.4-2.2 4.4-3.1 4.4-1.4 0-7.7-4.5-7.7-5.6 0-1.2 2.1-3.4 3.3-3.4.5 0 2.3 1 4 2.2zm-764.4 6c1.2 2 1.1 2.4-2 5-4.1 3.3-5 3.4-6.8.6-1.1-1.8-1.1-2.2.1-2.9.8-.5 2.6-1.7 3.9-2.8 3-2.6 3.1-2.6 4.8.1zm760.4 1.2c3.1 2.3 3.2 2.6 1.4 5-1.3 1.8-1.6 1.7-5.5-.9-4-2.6-4.2-3.3-1.9-6.2 1-1.3 1.5-1.2 6 2.1zm-756.1 5.3c1 .9 1.8 1.9 1.8 2.3 0 .9-7.9 6.5-8.3 5.9-.1-.2-.9-1.2-1.7-2.3-1.3-1.6-1.1-2.1 2-4.7 4.1-3.4 3.9-3.3 6.2-1.2zm750.8.9c3.8 2.5 3.9 2.7 2.3 5-1.6 2.5-1.9 2.4-6.5-1-3-2.2-3.4-3.6-1.6-5.4 1.5-1.5 1.2-1.6 5.8 1.4zm-745.3 6.3c1.1 1.7.8 2.3-2.2 4.5-3.9 3-4.8 3.2-6.6 1-1.2-1.4-.9-2 2.1-4.5 4-3.4 5.1-3.6 6.7-1zm740.9.6c3 2.3 3.2 2.8 2.1 4.5-1.6 2.7-2.7 2.5-6.7-.9-3-2.5-3.3-3.1-2.1-4.5 1.8-2.2 2.8-2 6.7.9zm-736.2 5.8c.9 1.3.4 2.2-2.4 4.6-4.2 3.6-4.6 3.7-6.1.9-1-1.9-.8-2.5 2.2-4.9 3.7-3.1 4.7-3.2 6.3-.6zm730.8.3c4.3 3.1 4.4 3.1 2.1 5.6-1.6 1.7-1.7 1.7-5.2-.9-2-1.4-3.7-2.7-3.9-2.9-.4-.3 2.1-4.4 2.7-4.4.3 0 2.2 1.2 4.3 2.6zm-726.3 5.6c1.2 2 1.1 2.4-1.9 5-3.4 3.1-4.7 3.2-6.4.4-.9-1.4-.5-2.2 2.4-4.6 4.2-3.6 4.2-3.5 5.9-.8zm723.9 3.1c.9 1.1.8 1.8-.6 3-1.7 1.5-2.1 1.4-5.6-1.4-3.5-3-3.6-3.2-2-5 1.6-1.8 1.7-1.8 4.4.1 1.5 1 3.2 2.5 3.8 3.3zm-6 4.6c2 1.7 2.1 2.3 1 4-1.7 2.7-2.6 2.6-6.8-.8-3.4-2.9-3.4-3-1.6-5 2-2.2 3-1.9 7.4 1.8zm-712.5-.7c.8 1.2.2 2.2-2.4 4.6l-3.4 3.1-2-2-2-2 3.3-3c3.5-3.2 4.9-3.3 6.5-.7zm5.1 5.7c1.6 1.8 1.5 2-2.2 5l-3.9 3.1-1.9-2.1c-1.8-2-1.8-2.1 1.6-5 4.2-3.4 4.2-3.4 6.4-1zm701.1.8c2.8 2.2 3.1 2.9 2.2 4.5-1.7 2.6-3.9 2.2-7.2-1.2-2.3-2.4-2.6-3.2-1.5-4.5 1.7-2.1 2.6-1.9 6.5 1.2zm-696.1 5.2c1.7 1.9 1.7 2.1-1.6 5-4 3.6-4 3.6-6.3 1.1-1.8-2-1.8-2.1 1.6-5 4.1-3.5 4.1-3.5 6.3-1.1zm691.1 1.1c2.8 2.9 2.8 3 1 5-1.8 1.9-1.8 1.9-5.7-1.1-3.7-3-3.8-3.2-2.2-5 2.3-2.6 3.6-2.4 6.9 1.1zm-685.1 5.3c.9 1.4.5 2.2-2.4 4.5-4 3.2-4.9 3.3-6.4 1-.9-1.5-.5-2.3 2.4-4.7 3.8-3.3 4.8-3.4 6.4-.8zm679.3.9c3 2.9 3.2 3.3 1.7 4.9-1.5 1.7-1.8 1.7-5.5-1.3-3.3-2.6-3.6-3.3-2.6-4.9 1.6-2.6 2.6-2.4 6.4 1.3zm-4.3 10.8-2 2-3.4-3.5c-3.3-3.4-3.3-3.5-1.5-5.5l1.9-2.1 3.5 3.6 3.6 3.5-2.1 2zm-669.7-6.1c1 1.6.6 2.3-2.2 5.1-3.4 3.3-3.5 3.3-5.5 1.5l-2-1.9 3.2-3.3c3.7-3.8 4.9-4.1 6.5-1.4zm3.3 10.6-3.4 3.5-2-2-2-2 3.4-3.5 3.4-3.5 2 2 2 2-3.4 3.5zm661.3.7c-2.1 2.3-2.3 2.3-6.3-1.1-3.4-2.8-3.5-2.9-1.6-5l1.8-2 3.9 3.2c3.5 3 3.6 3.3 2.2 4.9zm-654-.5c1.4 1.7 1.3 2.1-1.4 5.1-3 3.4-5.4 3.7-6.5.8-.5-1.3 4.1-7.6 5.6-7.6.4 0 1.4.8 2.3 1.7zm646.7 1.8c1.8 1.9 3.2 3.6 2.9 3.8-.2.1-1.2.9-2.2 1.6-1.6 1.3-2.2 1-5.2-1.9-3.3-3.2-3.4-3.5-1.8-5.2 2.2-2.4 2.4-2.3 6.3 1.7zm-4.6 10.5-2 2-3.4-3.5c-3.3-3.4-3.3-3.5-1.5-5.5l1.9-2.1 3.5 3.6 3.6 3.5-2.1 2zm-635.9-6.5c1.9 1.5 1.8 1.6-1.7 5.2-3.7 3.6-3.7 3.7-5.8 1.8l-2-1.9 3.2-3.3c3.6-3.8 3.6-3.8 6.3-1.8zm5.8 5.3c1.6 1.7 1.5 2-1.7 5.1-2.9 2.8-3.7 3.1-5.5 2.1-2.1-1.1-2.1-1.1 1.1-5 1.8-2.2 3.6-4 3.9-4 .3 0 1.3.8 2.2 1.8zm623 1.7c2.3 2.9 2.6 3.9 1.7 5-1.9 2.3-3.2 1.8-6.3-2.1-2.8-3.4-2.8-3.6-1-4.9 2.5-1.9 2.4-2 5.6 2zM220 868c-.5.8-2 2.6-3.4 3.9-2.5 2.4-2.6 2.4-4.6.6-1.9-1.8-1.9-1.8 1.1-5.6s3.1-3.8 5.4-2.1c1.6 1.1 2 2.2 1.5 3.2zm610.4-1.4 2.9 3.5-2.1 2.2c-1.2 1.1-2.3 1.9-2.4 1.6-.2-.2-1.6-1.9-3.2-3.6-2.9-3.2-2.9-3.3-1.1-5.3 2.3-2.6 2.4-2.5 5.9 1.6zm-605.1 4.1c1.4 1.7 1.3 2.1-1.4 5.1-3.1 3.4-5.4 3.7-6.6.7-.3-1 .5-2.8 2.3-4.6 3.3-3.4 3.6-3.5 5.7-1.2zm599.2 1.9c2.6 3.4 2.6 3.6.9 4.9-2.6 2-2.8 1.9-5.9-2-2.1-2.9-2.4-3.9-1.5-5 1.9-2.3 3.5-1.8 6.5 2.1zm-593.2 2.8c2.1 1.6 1.4 3.7-2.5 7.4-2.5 2.2-2.5 2.2-4.3.2-1.7-1.9-1.7-2.1.9-5.5 3-3.9 3.3-4 5.9-2.1zm586.7 1.8c3.5 3.9 3.6 4.4.9 5.8-1.7.9-2.5.8-4.1-.7-3.2-2.8-4.1-5.2-2.7-6.9 1.7-2.1 2.6-1.8 5.9 1.8zm-579 4.9c0 .3-1.5 2.3-3.3 4.3-3.1 3.7-3.3 3.7-4.9 1.9-1.7-1.8-1.6-2.1 1.3-5.6 2.6-3.2 3.2-3.5 5-2.4 1 .6 1.9 1.4 1.9 1.8zm572.4 0c3.1 3.6 3.2 4.1.7 6.3-1.8 1.6-2 1.5-4.9-2.2-2.9-3.6-3-4-1.4-5.5 2.2-2.3 2.6-2.2 5.6 1.4zm-567.1 4c.8 1.2.3 2.5-1.8 5.2-2.7 3.3-3 3.4-5.2 2l-2.3-1.5 2.8-3.9c2.8-4 4.8-4.6 6.5-1.8zm561 1.4c2.3 2.9 2.6 3.9 1.7 5-1.9 2.3-3.5 1.8-6.5-2.1-2.7-3.5-2.7-3.7-1-5 2.6-1.9 2.6-1.9 5.8 2.1zm-554.8 2.9c1.7 1.3 1.7 1.5-1 5-3 3.9-4.6 4.4-6.5 2.1-1-1.2-.8-2.1 1.4-5 3-3.9 3.4-4.1 6.1-2.1zm548.8 2.2c2.8 3.4 2.8 3.6 1 4.9-2.6 2-2.9 1.9-5.9-2-2.2-2.9-2.4-3.8-1.4-5 1.9-2.3 3.2-1.8 6.3 2.1zm-6.7 4.5c2.7 4 2.8 4.2.9 5.5-2.6 2-2.9 1.9-6-2.3l-2.8-3.6 2.2-1.9c1.3-1 2.4-1.8 2.6-1.8.1 0 1.5 1.8 3.1 4.1zm-535.7-1.7c1 1.1.7 2.2-1.1 5-2.4 3.8-4.4 4.2-6.1 1.5-.7-1.2-.4-2.4 1.3-4.7 2.6-3.5 4.1-4 5.9-1.8zm6.4 4.4c1.5 1.7 1.5 2.1-.9 5.5-2.7 4.1-3.1 4.2-5.7 2.3-1.8-1.4-1.7-1.6.9-5.5 3-4.6 3.4-4.8 5.7-2.3zm524.7 5.9c0 1.1-3.9 3.9-4.4 3.1-.1-.2-1.4-2-2.9-4l-2.7-3.7 2.2-1.6c2.2-1.5 2.4-1.4 5 1.7 1.5 1.8 2.8 3.8 2.8 4.5zm-517.7-1.5c1.6 1.2 1.5 1.6-1.1 5.6-2.9 4.3-2.9 4.3-5.2 2.4l-2.3-1.8 2.4-3.7c2.6-4 3.6-4.4 6.2-2.5zm509.1 3.1c1.8 3.2 1.9 3.9.6 4.7-2.4 1.6-3.4 1.2-5.8-2.6-1.9-2.9-2.1-3.8-1.1-5 1.8-2.2 3.9-1.3 6.3 2.9zm-503 1c1.8 1.3 1.8 1.5-.5 5.5-2.7 4.7-2.8 4.7-5.3 2.9-1.8-1.3-1.8-1.5.5-5.5 2.7-4.7 2.8-4.7 5.3-2.9zm496.2 2.7c2.6 3.9 2.7 4.1.8 5.5-2.7 2-2.8 2-5.9-2.7-2.6-3.9-2.7-4.2-.9-5.5 2.6-1.9 3.1-1.7 6 2.7zm-489.2 1.5c1.9 1.4 1.9 1.5 0 5.1-2.3 4.3-4 5.2-6.1 3.1-1.4-1.4-1.3-1.9.8-5.6 2.5-4.6 2.6-4.6 5.3-2.6zm482 2.6c2.6 3.9 2.7 4.1.9 5.5-2.4 1.8-3.2 1.4-5.7-2.9-2.1-3.7-2.1-3.8-.2-5.2 1.1-.8 2.1-1.5 2.2-1.5a31 31 0 0 1 2.8 4.1zm-6.8 4.1c2.5 3.9 2.6 4.2.8 5.5-2.6 1.9-2.8 1.7-5.3-2.8-2.2-3.9-2.2-4.1-.5-5.4 1.1-.8 2-1.5 2.1-1.5.2 0 1.5 1.9 2.9 4.2zm-467.8-2c1 1-.4 4.5-3.4 8.6-.5.8-4.4-1-4.4-2 0-1.8 4.1-7.8 5.4-7.8.7 0 1.7.5 2.4 1.2zm6.9 4.1c1 .7.8 1.8-.9 4.8-2.3 4.2-3.4 4.6-6.1 2.6-1.4-1.1-1.4-1.6 1-5.4 2.4-4.1 3-4.3 6-2zm454.3 1.9c2.2 4 2.2 4.2.4 5.5-2.4 1.8-3.2 1.4-5.7-3-2.1-3.6-2.1-3.7-.1-5.2 2.7-2 2.8-2 5.4 2.7zm-446.1 2.4c.6.6-4.3 8.4-5.3 8.4-.6 0-1.8-.5-2.6-1-1.2-.8-1.1-1.5.8-5.5 2-4.2 2.4-4.5 4.5-3.4 1.2.6 2.4 1.3 2.6 1.5zm438.9 1.6c2.2 4 2.2 4.3.5 5.5-2.3 1.8-3.1 1.4-5.6-3.1-2.2-3.7-2.2-3.8-.3-5.2 2.7-1.9 2.8-1.9 5.4 2.8zm-433.9 1c1.9 1.1 1.8 1.3-.2 5.5-2.3 4.8-2.5 4.9-5.1 3-1.7-1.3-1.7-1.5.3-5.5 2.4-4.7 2.4-4.7 5-3zm426.8 3c2.2 3.9 2.2 4.2.5 5.4-2.3 1.8-3 1.5-5.5-3-2.2-3.7-2.2-3.8-.3-5.2 2.7-1.9 2.8-1.9 5.3 2.8zm-419.3 1.1c1.7 1.3 1.7 1.5-.3 5.5-2.3 4.6-2.7 4.8-5.4 2.8-1.8-1.4-1.8-1.6.3-5.5 2.2-4.5 2.7-4.7 5.4-2.8zm412.2 2.8c1.8 4 1.8 4.2-.1 5.5-2.3 1.7-4 .5-5.6-4.3-.9-2.9-.9-3.7.2-4.4 2.5-1.6 3.6-.9 5.5 3.2zm-7.1 3.9c1.6 3.6 1.7 4.3.4 5.1-2.6 1.6-3.8 1-5.6-2.9-.9-2-1.8-4-2-4.3-.4-.7 3.9-2.8 4.8-2.3.3.2 1.4 2.2 2.4 4.4zm-397.6-3.1c1.3.8 1.2 1.5-.4 5-1.9 4.4-2.5 4.7-5.6 3.1-1.9-1.1-1.9-1.1.1-5 2.1-4.1 3.3-4.7 5.9-3.1zm7.1 3.1c1.9 1 1.9 1.1-.2 5.5-2.4 5-2.6 5.1-5.3 3.1-1.9-1.3-1.9-1.5-.1-5.5 2-4.4 2.6-4.7 5.6-3.1zm383 3.1c1.2 2.3 2 4.2 1.8 4.4-.2.1-1.3.7-2.5 1.4-2.1 1-2.4.8-4.4-3.1-2-4-2-4.2-.3-5.5 2.7-1.9 3.2-1.7 5.4 2.8zm-375.8.1c1.4 1.2 1.4 1.7-.3 5.5-2 4.6-2.6 5-5.1 3-1.4-1.1-1.4-1.6.3-5.5 2-4.5 2.6-4.9 5.1-3zm368.4 3.3c1.9 5 1.9 5-1.2 5.9-1.8.6-2.4 0-3.8-3.4-2.3-5.7-2.2-6.1 2.6-6.9.3 0 1.4 1.9 2.4 4.4zm-361.3-.3c1.6 1.2 1.6 1.6.1 5.5-1.8 4.5-3 5.1-5.6 3-1.4-1.1-1.4-1.6.4-5.5 2-4.6 2.5-4.8 5.1-3zm354 3.1c1.7 4 1.7 4.3 0 5.4-2.8 2.1-3.7 1.5-5.5-3.3-1.6-4.5-1.6-4.6.5-5.4 1.2-.5 2.4-.9 2.7-.9.3-.1 1.3 1.8 2.3 4.2zm-345.3.4c.2.2-.3 2.3-1.1 4.6-1.2 3.5-1.8 4.2-3.9 3.9-3.4-.4-3.4-.5-1.5-5.7 1.5-3.9 2.1-4.4 3.9-3.9 1.2.4 2.3.8 2.6 1.1zm337.3 1.8c2.1 4.4 2.1 6.1.1 6.9-2.7 1-3.1.7-4.9-3.6-1.6-4-1.6-4.3.1-5.5 2.5-1.8 2.8-1.7 4.7 2.2zm-330.9.8c1.6 1.2 1.6 1.5 0 5.2-2 5-1.8 4.8-4.3 4-2.5-.8-2.6-2.1-.6-6.9 1.7-3.9 2.3-4.2 4.9-2.3zm323.9 3.2 1.6 4.6-2.4 1.1c-2.9 1.3-2.7 1.5-4.7-3.9-1.5-4-1.5-4.4 0-5.3 2.9-1.6 3.7-1.1 5.5 3.5zM370 954c1.7.9 1.7 1.2.1 5.5-1.3 3.7-1.9 4.4-3.6 3.9-3.3-1-3.6-1.8-1.8-6.2 1.7-4.4 2.3-4.8 5.3-3.2zm308.7 3.5c1.2 3.6 1.2 4.1-.4 5.3-2.5 1.8-3.3 1.2-5-3.7-1.2-3.6-1.2-4.5-.1-5.2 2.4-1.6 4.1-.5 5.5 3.6zm-300.9-.6c1.9 1.2-.5 9.1-2.7 9.1-3.7-.1-4.3-1.5-2.5-5.8 1.6-4.2 2.7-4.9 5.2-3.3zm293.3 3.2c1.3 4.2.5 5.8-2.8 5.9-1.7 0-4.5-8.7-3-9.4 3.3-1.3 4.7-.5 5.8 3.5zm-286.7-1.5c1.9.7 2 2.9.5 7.3-.9 2.6-1.5 3-3.3 2.5-2.9-.9-2.8-.6-1.5-5.8 1.2-4.7 1.6-5.1 4.3-4zm279.1 4.2c1.2 3.9 1.1 4.3-.7 5.3-2.4 1.3-3.2.6-4.8-4.5-1-3.2-1-4 .1-4.7 2.5-1.6 4.2-.4 5.4 3.9zM393.1 961c1.2 0 1.1 3-.2 6.9-1.1 3.1-3.1 3.9-5.7 2.3-1.8-1.2 1.5-10.5 3.5-9.8.8.3 1.9.6 2.4.6zm262.9 4.4c1 3.2 1 4-.1 4.7-2.7 1.7-4.6.9-5.2-1.9-.3-1.5-.9-3.5-1.2-4.4-.5-1.3-.1-2 1.6-2.7 2.9-1.1 3.3-.7 4.9 4.3zm-254.4-.9c.3.8.1 3-.6 5-.9 2.6-1.7 3.5-3.4 3.5-3.2 0-3.6-.7-2.4-4.3.5-1.8 1.1-3.8 1.4-4.5.5-1.7 4.3-1.5 5 .3zm246.2 2.7c.6 2.4.7 4.7.3 5.1-1.8 1.8-4.5.2-5.3-3.2-1.1-4.1-.5-6.1 2-6.1 1.5 0 2.2 1.1 3 4.2zm-239.5-1.6c1.2.4 1.3 1.3.5 4.2-1.6 6.3-1.5 6.2-4 5.3-2.4-.9-2.6-2.9-.7-7.8.9-2.4 1.7-2.7 4.2-1.7zm231.1.2c.3.5.8 2.7 1.2 4.9.6 3.8.4 4.1-2 4.5-2.3.5-2.7.1-3.7-3.4-.6-2.2-.8-4.6-.5-5.4.6-1.5 4.2-1.9 5-.6zm-223.1 1.7c1.1.5 1.2 1.4.4 5-.9 3.7-1.4 4.5-3.3 4.5-3.1 0-3.7-1.3-2.4-6 1-3.9 2.2-4.6 5.3-3.5zm215.1.3c.3.5.8 2.8 1.2 5.1.7 4.2.7 4.3-2.2 3.9-2.2-.2-3-1-3.7-3.7-.4-1.8-.6-4-.3-4.7.6-1.5 4.2-1.9 5-.6zM425 970.9c0 1-.3 3.3-.6 5-.6 2.7-1.1 3.2-3.3 2.9-2.7-.3-3-1.6-1.6-7.6.7-2.9 5.5-3.2 5.5-.3zm198.4-1.1c.3.5.8 2.8 1.2 5 .6 4 .5 4.2-1.9 4.2-2.1 0-2.6-.7-3.5-4.2-.6-2.3-.9-4.5-.6-5 .7-1.1 4.1-1 4.8 0zM432.2 971c1.2 0 .2 8-1.2 9.3-.4.5-1.8.6-3 .2-1.8-.6-2-1.2-1.5-3.8 1.2-6 1.6-6.9 3.2-6.3.8.3 1.9.6 2.5.6zm184.6 3.7c.6 2.6 1 4.9.9 5-.1.1-1.4.4-2.8.8-2.4.6-2.6.3-3.6-4-.9-3.9-.8-4.7.6-5.5 3-1.7 3.9-1 4.9 3.7zm-176.3-1.8c.3.6.2 2.8-.1 5.1-.6 3.7-.9 4.1-3.3 3.8-2.4-.3-2.6-.6-2.2-4.3.1-2.2.5-4.3.8-4.8.6-1 4.1-.9 4.8.2zm168.3 3.3c1 5.2.8 5.8-2.3 5.8-2 0-2.5-.7-3.3-4.3-1-5.1-.8-5.7 2.3-5.7 2 0 2.5.7 3.3 4.2zM448.2 974c1 0 .1 7.9-1.1 9.2-.3.4-1.6.5-2.9.1-2-.5-2.2-1-1.6-4.2.9-5.6 1.3-6.4 3-5.7.9.3 2 .6 2.6.6zm152.6 3.2c.9 4.4-.3 6.8-3.4 6.8-1.9 0-3-9-1.3-10.1 2.7-1.7 3.8-.9 4.7 3.3zm-144.3 2.2c-.8 4.8-1.6 5.9-4.1 5.4-1.5-.3-1.8-1.1-1.6-4.3.4-5.8.7-6.3 3.7-5.7 2.5.4 2.6.7 2 4.6zm135.5-4.7c.1.5.5 2.7.9 5.1.8 3.9.7 4.3-1.6 4.8-3 .8-3.2.7-3.9-4.8-.6-4-.4-4.7 1.2-5.1 3-.8 3.4-.7 3.4 0zm-127.6 3c-.1.7-.2 2.9-.2 4.8-.2 3-.5 3.5-2.6 3.5-3.2 0-3.6-.7-2.9-5.8.5-3.9.8-4.3 3.2-4 1.4.2 2.6.9 2.5 1.5zm120-.1c.3.9.6 3.1.6 5 0 2.9-.3 3.4-2.4 3.4-1.8 0-2.5-.7-3-3.1-1.1-5.7-.8-6.9 1.8-6.9 1.3 0 2.7.7 3 1.6zm-112.4.6v4.8c0 3.6-.3 4-2.4 4-3.2 0-3.6-.7-2.9-5.8.5-3.8.8-4.3 3-4 1.3.2 2.3.6 2.3 1zm8.1 1.1c-.1.4-.1 2.5-.1 4.8 0 3.8-.1 4-2.7 3.7-2.6-.3-2.8-.6-2.5-4.3.4-5.9.8-6.6 3.2-5.7 1.2.4 2.1 1.1 2.1 1.5zm88.4 3.3c0 4.6-.2 4.9-2.5 4.9s-2.5-.4-2.8-4.7c-.2-3.8 0-4.7 1.5-5.1 3.2-.8 3.8-.1 3.8 4.9zm8.3-.4c.3 4.5.2 4.8-2.1 4.8-1.9 0-2.6-.7-3.1-3.1-1.2-6-.9-7.1 2.2-6.7 2.5.3 2.7.7 3 5zm-88.2-2.7c.3.8.2 3.2-.3 5.2-.8 3.3-1.2 3.8-3.3 3.5-1.4-.2-2.6-.5-2.7-.5 0-.1.1-2.3.4-5 .5-4.1.8-4.7 3-4.7 1.3 0 2.6.7 2.9 1.5zm71.9 3.1c.7 5.2.8 5.1-2.5 5.6-2.3.3-2.5-.1-2.8-3.6-.4-4.9.3-6.6 2.7-6.6 1.5 0 2 1 2.6 4.6zm-63.5-2.4c0 .7-.3 3-.6 5-.6 3.2-1.1 3.8-3 3.8-2.2 0-2.4-.4-2.4-5 0-4.9.1-5 3-5 1.7 0 3 .5 3 1.2zm7.4.5c-.1.7-.2 2.9-.2 4.8-.2 3-.5 3.5-2.7 3.5-2.3 0-2.5-.3-2.5-5.1 0-4.9.1-5 2.8-4.7 1.5.2 2.7.9 2.6 1.5zm40 .5c.3 1.3.6 3.5.6 5 0 2.4-.4 2.8-3 2.8-2.9 0-3-.1-3-5 0-4.6.2-5 2.4-5 1.6 0 2.6.7 3 2.2zm8.1 1.8c.8 4.7.2 6-3.1 6-2.2 0-2.4-.4-2.4-5s.2-5 2.4-5c2 0 2.5.6 3.1 4zm-40.5 2.1c0 4.7-.2 5-2.2 4.7-2-.3-2.3-1-2.6-5.1-.3-4.5-.2-4.7 2.2-4.7 2.4 0 2.6.3 2.6 5.1zm8.8-.4c-.3 4.4-.5 4.8-3 5.1-2.7.3-2.8.2-2.8-4.7 0-5 .1-5.1 3.1-5.1s3 .1 2.7 4.7zm8 0c-.3 4.4-.5 4.8-3 5.1-2.7.3-2.8.2-2.8-4.7 0-5 .1-5.1 3.1-5.1s3 .1 2.7 4.7zm8 0c-.3 4.4-.5 4.8-2.8 4.8s-2.5-.4-2.8-4.8c-.3-4.7-.3-4.7 2.8-4.7 3.1 0 3.1 0 2.8 4.7zM604.6 47.2c.3.4 1.2.8 2 .8s1.4-.4 1.4-.8-.9-.8-1.9-.8c-1.1 0-1.7.4-1.5.8zM356.5 60.9c-.3.6.3.9 1.4.8 1.1 0 1.7-.5 1.5-.9-.7-1.1-2.2-1-2.9.1zM684.6 61.9c-.3.5.8 1.1 2.5 1.5 4.3.8 5.1.8 4.4-.4-.3-.5-1.2-.7-1.9-.4-.8.3-1.7.1-2.1-.5-.8-1.3-2.2-1.4-2.9-.2zM348.1 63.9c-.9.6-1 1.1-.2 1.5.6.4 1.1.2 1.1-.4 0-.6.5-.8 1-.5.6.3 1 .1 1-.4 0-1.3-1-1.4-2.9-.2zM353.7 65.4c.6 2.8 3.3 4.4 3.3 2 0-.8-.4-1.2-1-.9-.5.3-1-.3-1-1.4 0-1.2-.4-2.1-.9-2.1-.4 0-.6 1.1-.4 2.4z"/><path d="M684.1 66.4c-1.4 1.5-1.9 2.6-1.2 3.1.6.3 1.1.1 1.1-.6s.7-2.1 1.7-3.1c2.4-2.7 1-2.2-1.6.6zM360.6 66.6c-.4.9-.4 1.9-.1 2.2.2.3.7-.3 1.1-1.2.4-.9.4-1.9.1-2.2-.2-.3-.7.3-1.1 1.2zM350 67c0 .5.5 1 1.1 1 .5 0 .7-.5.4-1-.3-.6-.8-1-1.1-1-.2 0-.4.4-.4 1zM687.4 69c.2 1.8 2.8 2 3.2.2.1-.7 0-.8-.3-.2-.7 1.4-2.1 1.3-2.6-.3-.2-.7-.3-.6-.3.3zM351.2 70.6c-.7.8-.8 1.4-.3 1.4 1 0 2.5-1.9 2-2.5-.2-.1-1 .3-1.7 1.1zM284 93.6c0 .3.7 1.2 1.5 2 1.6 1.7 1.8 1.4.9-1-.6-1.5-2.4-2.3-2.4-1zM279.7 96.5c-.9.8-2 1.5-2.6 1.5-.5 0-1.3.4-1.6 1-.8 1.3 2.6.1 4.7-1.7 1.5-1.3 1.8-1.2 3.3 1.6 1.8 3.5 1.1 3.9-1.9 1.3l-2.1-1.7 2 2.5c1.1 1.4 2 2.6 2 2.7 0 .1.6-.2 1.4-.6 1-.7 1-1.4-.3-3.9-2.1-4-3.1-4.6-4.9-2.7zM762.6 97.7c.5.5 1.2 1.2 1.6 1.8.4.6.8.2.8-.8 0-.9-.7-1.7-1.7-1.7-.9 0-1.2.3-.7.7zM765.6 100.6c-.5 1.4-.4 1.5.9.4 1.7-1.4 1.9-2 .6-2-.5 0-1.2.7-1.5 1.6zM271.5 101.1c-1.1 1.6-.1 1.9 1.3.3.7-.8.8-1.4.3-1.4s-1.3.5-1.6 1.1zM767.6 103c-1.8 3.2-4.3 4.1-3.1 1.2.4-1.2.3-1.4-.5-.6-1 1-.4 4.4.9 4.4.9 0 5.5-6.9 4.9-7.5-.2-.2-1.2.9-2.2 2.5z"/><path d="M274 102.6c0 .5.6 1.6 1.2 2.2 1 1 1 1.5-.2 2.2-.8.5-1.1 1.2-.7 1.6.4.4 1.5 0 2.4-.8 1-.8 2.6-1.8 3.6-2.1.9-.4 1.7-1.2 1.7-1.9 0-.9-.3-.9-.8-.2-1.5 2.3-4.1 2.3-5.7.1-.8-1.2-1.5-1.7-1.5-1.1zM758.6 102.8c-.4.7-.5 1.2-.2 1.2.2 0 1.1.3 2 .6.9.3 1.6.1 1.6-.6 0-.6-.4-.9-.9-.6-.5.4-1.1.1-1.3-.6-.3-.9-.6-.9-1.2 0zM801.2 104.2c-.7.7-1.2 1.5-1.2 1.9 0 .4 5.1 4.3 11.3 8.6 41.9 29.7 80 67.1 111.6 109.3 5.1 6.9 9.8 12.5 10.4 12.5 3.1 0 .9-4.4-8.7-17.1-30.2-40.3-69.8-78.9-110.6-107.9-3-2.2-6.9-4.9-8.6-6.2-2.3-1.7-3.3-2-4.2-1.1zM219.3 118.8A505.5 505.5 0 0 0 109.6 232c-6 8.5-6.5 9.5-5.1 11 1.5 1.3 1.7 1.3 2.5-.1 2.6-4.5 20.8-28.7 29.6-39.3 26.7-32.3 54.7-58.8 87.2-82.9 11.3-8.3 13.9-11.4 10.7-12.3-.5-.2-7.4 4.5-15.2 10.4zM875.7 143.5c-1.5 1.9-3.4 3.5-4.2 3.5-1.9 0-1.9 1.4 0 3 1.2 1 1.5 1 1.5-.2 0-.8 1.2-2.5 2.7-3.9 1.9-1.7 2.4-1.9 2-.7-1.2 3.5-1.9 8.8-1.1 8.8 1.2-.1 8.4-6.8 8.4-7.9 0-.5-.7-1.1-1.5-1.5-.9-.3-1.5 0-1.5.8 0 .7-1 2.1-2.2 3.2-2.1 1.9-2.1 1.9-1.4-.1 1.3-3.5 1.9-8.5 1-8.5-.5 0-2.2 1.6-3.7 3.5zM208 145.5c-1.3 1.4-2 2.8-1.7 3.2.4.3.7.1.7-.5 0-1.8 2.1-1.4 4.6.9 1.6 1.5 2.7 1.8 3.9 1.2 1.5-.9 1.4-1.3-1-4.1-1.5-1.8-3-3.2-3.4-3.2-.4 0-1.8 1.1-3.1 2.5zm5.5 1.1c.9 1.4 1.4 2.8 1.1 3.1-.6.6-4.5-3.7-4.6-5 0-1.6 1.9-.6 3.5 1.9zM829.7 147.5c-1.4 1-1.6 1.8-.9 3.1.9 1.5 1.2 1.4 2.6-1.4 1.8-3.4 1.2-4-1.7-1.7zM832.6 150.8c-2.2 2.4-2.4 3.1-1.3 4 1.1.9 2 .5 4.1-1.7 1.6-1.6 2.5-3.4 2.2-4-1.1-1.7-2-1.3-5 1.7zm4.4-1c0 1.4-3.9 4.6-4.7 3.9-.3-.4.2-1.6 1.2-2.7 1.9-2.1 3.5-2.6 3.5-1.2zM202.7 149.7c-1.1 1-.8 2.5.3 1.8.5-.3 1.9.4 3.1 1.6 1.7 1.7 1.9 2.3.8 3-1.1.7-1 .9.4.9 2.4 0 2.1-2-.8-5.3-2.6-2.9-2.8-3-3.8-2zM886 150.3c0 1.6-4.2 5.7-5.8 5.7-2 0-1.4 1.5 1.7 4.4 1.8 1.7 3.6 2.6 4.5 2.3 2.2-.9 2-2.6-.2-2-1 .2-2.4-.3-3.1-1.1-1.1-1.3-1.1-1.9 0-3.2 1.2-1.4 1.4-1.4 2.5.1.7.9 1.7 1.4 2.3 1 1.6-.9 1.3-2.5-.5-2.5-.9 0-1.4-.6-1.1-1.3.6-2 3.1-1.4 4.2 1 1 2.4 2 2.9 2.9 1.4.7-1-4.7-7.1-6.2-7.1-.7 0-1.2.6-1.2 1.3zM152.2 151.1c-6.7 2.5-2 12.3 5.2 10.5 3.2-.8 4.2-4 2.2-7.1-2.2-3.3-4.6-4.4-7.4-3.4zm4.6 2.5c2.5 1.8 2.9 4.6.7 6.4-1.2 1-2 .9-4-.4-2.7-1.8-3.2-4.5-1.3-6.4 1.5-1.5 1.9-1.5 4.6.4zM210 153c0 .5.5 1 1.1 1 .5 0 .7-.5.4-1-.3-.6-.8-1-1.1-1-.2 0-.4.4-.4 1zM143.7 158.7c-.4.3-.7 1.1-.7 1.6 0 .6.3.7.7.4.7-.8 4.3 2.1 4.3 3.5 0 .5-.9.4-1.9-.2-2.1-1.1-7.1-1.4-7.1-.4 0 .3 1.4 1.7 3.1 3.1 1.7 1.5 3.4 3.4 3.8 4.4.4 1.3 1 1.5 2 .9 1.2-.7.8-1.4-1.8-3.5-1.7-1.5-3-2.9-2.7-3.2.2-.2 2.3.1 4.5.8 2.3.7 4.4.9 4.8.5.7-.6-6.5-8.6-7.7-8.6-.4 0-1 .3-1.3.7zM148 206.6c-1.2 3.2-1.2 3.4.1 3.4.5 0 .7-.5.4-1-1.1-1.7.8-1.1 3 1 1.8 1.7 2.4 1.8 3.3.7.9-1.1.6-1.9-1.6-3.8l-2.7-2.4 2.3 2.6c1.3 1.5 1.9 2.9 1.4 3.3-1.3.8-5.6-4-4.7-5.3.3-.6.4-1.1 0-1.1-.3 0-1 1.2-1.5 2.6zM892.1 205.4c-1 1.2-.8 1.3.8.9 1.2-.3 1.8-.9 1.5-1.4-.7-1.2-1-1.1-2.3.5zM887.7 208.6c-.4.7-.1 1.7.7 2.3 1 .8 1.7.6 3.2-1.2l1.9-2.2-2.2 1.8c-2.1 1.8-2.1 1.8-2.5 0-.2-1.2-.6-1.4-1.1-.7zM892.3 211.2c-1.6 1.7-1.8 2.6-.9 3.4.8.8 2 .5 4.4-1.4 1.7-1.3 3.2-2.9 3.2-3.5 0-.6-1.3.2-3 1.8-3.3 3.1-5.4 2.7-2.5-.5 1-1.1 1.6-2 1.3-2-.2 0-1.4 1-2.5 2.2zM143.5 211.1c-1.1 1.6-.1 1.9 1.3.3.7-.8.8-1.4.3-1.4s-1.3.5-1.6 1.1zM148.5 213.5c1.7 1.4 1.8 1.7.5 2.6-1.2.9-1.2 1-.1.7 2.4-.7 2.4-2.6-.1-3.8-2.2-1.1-2.2-1.1-.3.5zM938.4 243.4c-.3.8 2.4 6.1 5.9 11.8 28.4 45.5 48.2 91.4 60.7 140.3 4.2 16.5 5.1 19 6.9 19.3 1.2.2 2.1-.1 2.1-.7 0-2.5-8.5-33.5-13-47.6-13.5-41.5-33.5-83.8-55.8-117.8-4.4-6.8-5.8-7.9-6.8-5.3zM95.7 252.8C67.9 297.2 48.6 341.3 35 391c-6 22.2-7.6 30.8-6.1 32.3 1.7 1.7 2.7-.1 4.6-8.8 10-47.7 32.6-104.4 58.4-147.4 5-8.3 9.1-15.5 9.1-16s-.7-1.1-1.5-1.5c-1-.3-2.3.7-3.8 3.2zM102 269.1c0 .5.5.7 1 .4.6-.3 1-.8 1-1.1 0-.2-.4-.4-1-.4-.5 0-1 .5-1 1.1zM100.1 272.3c-1.5 1.5-1.4 2.4.5 3.1 1.4.5 1.5.4.4-.9-1.8-2.1.8-2 3.9.1 1.8 1.3 2 1.8 1 2.6-1.2.8-1.1.9 0 .6 2.7-.8 2.2-2.5-1.3-4.6-2.5-1.5-3.7-1.7-4.5-.9zM939.4 275.5c-1 .8-1.4 1.5-.7 1.5.6 0 1.5-.5 1.8-1 1-1.7 2.5-1.1 2.5 1 0 1-.8 2.4-1.7 2.9-1 .6-1.3 1.1-.6 1.1.6 0 1.5-.5 1.8-1 .9-1.4 2.5-1.2 2.5.3 0 .7-1.5 2.1-3.2 3-1.8.8-2.8 1.6-2.3 1.6.6.1 2.5-.8 4.4-2 3-1.8 3.2-2.2 1.9-3.7-.8-.9-1.8-2.5-2.1-3.5-.8-2.1-1.7-2.1-4.3-.2zM97.7 276.7c-1.2 1.2-.7 2.2 1.6 3.3 2.1 1.1 2.2 1.1.2-.5-1.7-1.4-1.8-1.7-.5-2.5.8-.5 1-1 .4-1s-1.4.3-1.7.7zM102.3 278.3c1.1.9 1.5 2.1 1 3.2-.4 1.3-.3 1.6.5 1.1 1.9-1.2 1.4-3.4-1-4.6-2.1-1-2.1-1-.5.3z"/><path d="M935.7 277.7c-.3.4.3 1.9 1.4 3.2 2.3 2.8 2.4 2.3.5-1.4-.8-1.4-1.6-2.3-1.9-1.8zM95.2 281.2c-1.4 1.4-1.6 2.8-.3 2.8.9 0 2.4-3 1.8-3.6-.2-.2-.9.2-1.5.8zM98 282.9c0 .5 1 1.1 2.3 1.5 1.9.5 2 .8.7 1.7-1.3.9-1.3 1 0 .6 2.3-.6 1.8-2.9-.7-3.8-1.3-.5-2.3-.5-2.3 0zM944.7 285.1c.7.7 1.5 1 1.8.7.3-.3-.2-.9-1.2-1.2-1.4-.6-1.5-.5-.6.5zM995 301.8c0 1.5-6.9 4.4-8.8 3.7-1-.4-1.2.1-.6 1.8 1.5 4.8 3.4 7.6 4.9 7.1 1.9-.8 2-2.4.1-2.4-1.6 0-2.9-2.7-2-4.1.9-1.6 3.7-1 3 .6-.3.9 0 1.5.9 1.5 1.8 0 2.8-1.7 1.5-2.5-1.5-.9-1.2-2.5.5-2.5 2.1 0 3.7 3.4 2.3 4.8-.9.9-.8 1.2.3 1.2 2.6 0 2.8-1 1.2-4.8-1.7-4.1-3.3-6.3-3.3-4.4zM41.7 312.8c-3.6 4-.5 9.2 5.3 9.2 5 0 6.8-5.2 3-9-2.5-2.5-6.2-2.6-8.3-.2zm7.3 1.7c3.2 3.8-2.2 7.4-6.1 4-1.4-1.4-1.6-2.2-.8-3.6 1.2-2.3 5.2-2.5 6.9-.4zM998.6 313.8c-.3.5-2.3 1.4-4.5 2.2-4.4 1.4-4.6 1.7-3.1 4 .6 1 1 1.1 1 .3 0-.7 1.4-1.9 3-2.8 3.7-1.9 3.8-1.2.4 3.2-1.4 1.9-2.4 3.7-2.1 3.9.3.3 2.8-.3 5.6-1.3 4.8-1.7 6.3-3.4 4.1-4.8-.5-.3-1-.2-1 .4 0 1.3-4 3.5-4.8 2.7-.3-.4.7-1.9 2.2-3.5 1.6-1.6 2.5-3.4 2.2-4-.8-1.3-2.3-1.4-3-.3zM37 322.3c0 .8 1.3 1.7 3 2 4 .9 3.8 2.7-.3 2.7-3.1 0-5.7 1.4-5.7 3.2 0 .4.6.5 1.3.3.7-.3 3 .4 5.2 1.5 4.7 2.4 5.5 2.5 5.5.5 0-.8-.9-1.5-1.9-1.5-2.6 0-5.1-1-5.1-2.1 0-.5 2-.9 4.5-.9s4.5-.4 4.5-1c0-.5-2.1-1.9-4.7-3.2-2.7-1.2-5.1-2.4-5.5-2.6-.5-.2-.8.3-.8 1.1zM1004.6 324.8c-1 1.6-7.6 4.3-8.7 3.6-1.3-.8-1.1 1.2.5 5.1 1.5 3.4 3.8 4.6 5.1 2.5.3-.6-.3-1-1.3-1-1.9 0-3.6-3.2-2.4-4.4 1.1-1.2 3.2-.6 3.2.9 0 1.8 1.6 2 2.6.4.3-.6.1-1.5-.5-1.9-.9-.5-.8-1 .3-1.9 2.1-1.7 4.4 2.3 2.5 4.5-.9 1.1-.8 1.4.4 1.4 2.6 0 2.9-1.7.9-6.2-1.2-2.8-2.1-3.8-2.6-3zM32.2 335.2c-3.4 3.4.2 9.8 5.5 9.8 2.2 0 5.3-3.3 5.3-5.7 0-3.8-8-6.9-10.8-4.1zm7.8 2.3c3.4 4.1-2.8 7.6-6.4 3.6-1.5-1.7-1.6-2.3-.6-3.6 1.6-1.9 5.4-1.9 7 0zM64 346.1c0 .5.5.7 1 .4.6-.3 1-.8 1-1.1 0-.2-.4-.4-1-.4-.5 0-1 .5-1 1.1zM63.1 349.4c-.9 1-.8 1.6.4 2.6.9.7 1.8 1 2.2.6.3-.3.1-.6-.6-.6-.8 0-1.1-.8-.8-2 .6-2.4.4-2.5-1.2-.6zM67.5 350.2c3 1.6 3.1 1.8 1.5 2.8-1.3.8-1.2 1 .3 1 2.3 0 2.2-2.7-.2-4-2.7-1.4-4.1-1.2-1.6.2zM979.6 352.4c.4 1.1.2 2.1-.7 2.7-1.1.7-1.1.9.4.9 1.9 0 2.3 1.5.7 2.3-.6.3-.5.4.2.3 1.5-.4 1.4-5.4-.2-7-.8-.8-.9-.6-.4.8zM61.5 354.1c-.4.6-.5 1.2-.2 1.5.2.3.7-.2 1-1.1.7-1.7.1-2-.8-.4zM64.6 355.6c-.9 2.4-.7 2.7.9 1 1.7-1.7 1.9-2.6.6-2.6-.5 0-1.2.7-1.5 1.6zM67.6 357.5c-.3.8-.1 1.5.3 1.5.5 0 1.1-.7 1.5-1.5.3-.8.1-1.5-.3-1.5-.5 0-1.1.7-1.5 1.5zM974 358.4c0 .8.4 1.7.9 2.1.6.3.9-.4.8-1.5-.1-2.3-1.7-2.8-1.7-.6zM59.7 358.7c-1 1-.8 2.3.4 2.3.5 0 .8-.4.5-.9-.4-.5 0-1.2.6-1.4.7-.3.8-.6.2-.6-.6-.1-1.4.2-1.7.6zM64.5 362c1 1.1 2.3 1.6 2.9 1.2.7-.4.5-.8-.6-1-1-.2-1.8-.8-1.8-1.3s-.5-.9-1.2-.9c-.6 0-.3.8.7 2zM1012.6 423.9c-.4.5.5 7.4 1.9 15.3 5.7 33.6 8.2 72.3 6.5 104.6-1.1 22.2-3.2 42.9-5.5 56.3-2 11.2-1.9 12.9.4 12.9 1.6 0 2.1-1.5 3.5-10.8 8.2-53.2 8.5-100.6 1-152.2-3.3-22.6-4.2-27-5.9-27-.8 0-1.6.4-1.9.9zM40.7 430.7c-1.1 1-.8 3.3.4 3.3.5 0 .7-.5.3-1.1-.3-.6 0-1.5.7-2 .8-.5.9-.9.3-.9-.6 0-1.4.3-1.7.7zM46.3 432.1c.9.6 1.4 1.6 1.1 2.2-.5.9-.4.9.6 0 1.5-1.4.5-3.3-1.8-3.3-1.5.1-1.5.2.1 1.1zM22.7 451.2c-3.8 27-4.7 41.2-4.7 70.7 0 29.3 1 45.4 4.5 69.6 4 27.6 4.4 29.5 6.6 29.5 2.4 0 2.4-.1-.6-17.8-4.9-29.2-5.9-43.2-6-80.7 0-22.4.5-39.5 1.3-47.5 1.4-13.3 5-38.3 5.8-41.3.4-1.3 0-1.7-1.8-1.7-2.4 0-2.5.4-5.1 19.2zM998 434c-.8.5-1.1 1.2-.7 1.7.5.4 1.2.1 1.8-.7.8-1.3 1-1.3 1.8 0 1.1 1.6 2.7.7 1.6-.9-.8-1.3-2.5-1.4-4.5-.1zM993.6 434.9c-.3.5 0 1.3.7 1.9 1 .8 1.3.6 1.3-.9 0-2-1.1-2.5-2-1zM39.5 436c-.3.5-.1 1.8.5 2.7.9 1.5 1.1 1.5.7.2-.3-.9 0-2.2.6-2.8.8-.8.8-1.1 0-1.1-.7 0-1.5.4-1.8 1zM42 438c0 .5.5 1 1 1 .6 0 1-.5 1-1 0-.6-.4-1-1-1a1 1 0 0 0-1 1zM46.2 438.6c-.7.8-.8 1.4-.3 1.4 1 0 2.5-1.9 2-2.5-.2-.1-1 .3-1.7 1.1zM1001.6 439.1c.3.6 0 1.5-.7 2-1.1.7-1 .9.4.9 1 0 1.7-.8 1.7-2 0-1.1-.5-2-1.1-2-.5 0-.7.5-.3 1.1zM994.8 439.5c-1.1 1.1.3 3.5 2.1 3.5 1 0 1.2-.3.5-.8-.6-.4-1.3-1.3-1.5-2-.3-.7-.7-1-1.1-.7zM38 441.9c0 .6.5 1.3 1 1.6.6.3 1-.1 1-.9 0-.9-.4-1.6-1-1.6-.5 0-1 .4-1 .9zM43.2 442.9c2.8 2.3 3.8 2.6 3.8 1.2 0-.5-.8-1.1-1.7-1.5-1-.3-2.5-.9-3.3-1.2-.8-.4-.3.3 1.2 1.5zM32.7 516.3c-.8 2 .3 5.8 1.4 5.1.5-.3.5-1.3-.1-2.4-1.1-2.1.1-2.9 3.8-2.2 1.5.3 2.1 1 1.8 1.8-.3.8-.1 1.4.4 1.4.6 0 1-.9 1-2 0-1.2-.7-2-1.7-2s-2.8-.3-3.9-.6c-1.4-.4-2.3 0-2.7.9zM1.3 516.6c-.7.3-1.3 1.5-1.3 2.6 0 1.9.1 1.9 1.9-.3 1.9-2.3 1.9-2.4 4-.5 2.7 2.4 2.7 4.8 0 7.2-2.1 1.9-2.1 1.8-4.1-.6l-2-2.5.3 2.5c.3 2.1.9 2.5 3.9 2.5 2.8 0 3.7-.5 4.8-2.8 2.5-5.1-2.3-10.3-7.5-8.1zM1002 518.4c0 .8.4 1.7.8 2 .4.2.8-.4.8-1.5 0-1-.4-1.9-.8-1.9s-.8.6-.8 1.4zM1005.6 518.6c-.8 2.1-.8 2.4.4 2.4.6 0 1-.7 1-1.5s.5-1.5 1-1.5c.6 0 1 .8 1 1.7 0 1.2.3 1.4 1.1.6.6-.6.8-1.6.5-2.2-1.1-1.6-4.3-1.3-5 .5zM1032.8 518.2c.7.7 1.2 2.8 1.2 4.8s-.5 4.1-1.2 4.8c-.9.9.1 1.2 4.5 1.2 5.4 0 5.7-.1 5.7-2.5 0-2.7-1.5-3.4-2.4-1-.3.8-1.5 1.5-2.6 1.5-1.7 0-2-.6-2-3.8 0-2.1.5-4.3 1.2-5 .9-.9.4-1.2-2.2-1.2s-3.1.3-2.2 1.2zM37.8 522.7c.7.3 1.6.2 1.9-.1.4-.3-.2-.6-1.3-.5-1.1 0-1.4.3-.6.6zM1002 524c0 1.4.6 2 2.3 1.9 1.6-.1 1.8-.2.5-.6-3.1-.8-1.9-2.3 1.9-2.3 3.5 0 3.6 0 1.8 2-1.5 1.7-1.6 2-.3 2 1.7 0 3.1-2.6 2.2-4.1-.3-.5-2.3-.9-4.5-.9-3.2 0-3.9.3-3.9 2zM32.6 525.7c.2 3.8.4 4.1 1.3 1.8.9-2.1.4-4.5-.8-4.5-.4 0-.6 1.2-.5 2.7zM39.5 526.9c-.3.5-.1 1.2.5 1.6.5.3 1-.1 1-.9 0-1.8-.6-2.1-1.5-.7zM40.6 600.9c-.9 3.2.8 9.1 2.6 9.1.6 0 .5-.6-.2-1.5-.7-.8-1-2.2-.6-3 .3-.8.1-1.5-.4-1.5-2 0-.9-2.9 1.3-3.2l2.2-.3-2.2-.7c-1.6-.4-2.4-.1-2.7 1.1z"/><path d="M46.8 600.3c1.1 1.3 1.1 1.7-.1 2.4-.8.4-1.8 1.8-2.1 3-.6 2-.4 2.3 1.8 2.3 2.4 0 2.5-.3 2.3-4.2-.2-2.6-.9-4.3-1.7-4.6-1.3-.4-1.3-.3-.2 1.1zm.8 6.4c-1 1-1.9-.5-1-1.8.6-1.1.8-1.1 1.2 0 .2.7.1 1.5-.2 1.8zM996.3 601.7c.4.3.2 1.2-.4 1.9-1.2 1.5-.4 3.4 1.4 3.3.9 0 .9-.2 0-.6-2.5-1-1.2-2.3 2.1-2.3 1.9 0 3.8-.5 4.2-1.1.5-.8-.3-1-2.5-.7-1.7.2-3.1.1-3.1-.4 0-.4-.5-.8-1.2-.8-.6 0-.8.3-.5.7zM1002.2 606.6c-.7.8-.8 1.4-.3 1.4 1 0 2.5-1.9 2-2.5-.2-.1-1 .3-1.7 1.1zM994.5 609c-.9 1.5.4 3 2.3 2.9 1.5-.1 1.5-.2 0-.6-2.5-.6-2.2-2.1.5-2.6 2.2-.4 2.2-.4 0-.6-1.2 0-2.5.3-2.8.9zM1001.5 610.2c.5 1.3.2 1.8-1 1.8-.9 0-1.3.5-.9 1.1.4.7 1.1.6 2.2-.5 1.3-1.3 1.4-1.8.3-2.8-1-1.1-1.1-1-.6.4zM48.5 611c-.3.5-.2 1 .4 1 .5 0 1.3-.5 1.6-1 .3-.6.2-1-.4-1-.5 0-1.3.4-1.6 1zM41.5 612c.3.5 1.1 1 1.6 1 .6 0 .7-.5.4-1-.3-.6-1.1-1-1.6-1-.6 0-.7.4-.4 1zM1011.6 622.2c-.3.7-1.2 4.9-2.1 9.3-9.8 46.7-32.2 102.9-58.7 146.8-4.8 8.1-8.6 15.2-8.3 15.8 1.6 2.5 4-.2 11.8-13.4 25.9-43.6 43.8-86.8 56.2-135.3 5.2-20.7 5.7-23.7 3.2-24.2-.9-.2-1.9.2-2.1 1zM30.3 629.8c-2.1 1.4 9.2 42.5 19.2 69.2 11.7 31.3 30.4 68.6 48 95.9 4.3 6.6 6.6 8.4 8 6.2.3-.5-2.3-5.4-5.8-10.8C79.9 759.6 63.4 725.6 50 688c-4-11.2-12.5-40.5-15.2-52.4-1.4-6-2.3-7.2-4.5-5.8zM63.4 682c-1.2.5-2.5 1.3-2.8 1.9-.4.6.6.4 2.1-.4 3.3-1.8 4.9-1.9 5.6-.5.3.6.4.5.3-.2-.3-1.6-2.5-2-5.2-.8zM979 686c2 1.3 3.3 1.3 2.5 0-.3-.6-1.4-1-2.3-1-1.5 0-1.5.2-.2 1zM68.3 686.7c.9.2 1.4.9 1.1 1.5-.4.7-.2.8.5.4 1.5-1 .4-2.6-1.7-2.5-1.5.1-1.5.2.1.6zM65.1 688.6c0 1.1.3 1.4.6.6.3-.7.2-1.6-.1-1.9-.3-.4-.6.2-.5 1.3zM971.7 689.4c-.6 1.5.1 2.6 1.5 2.6.5 0 .6-.5.2-1.1-.3-.6 0-1.5.7-2 1.1-.7 1.1-.9-.2-.9-.9 0-1.9.6-2.2 1.4zM62 690c0 .5.5 1 1.1 1 .5 0 .7-.5.4-1-.3-.6-.8-1-1.1-1-.2 0-.4.4-.4 1zM69 692l-2.5.8 2.8.1c1.5.1 2.7-.4 2.7-.9 0-.6-.1-1-.2-.9-.2.1-1.4.5-2.8.9zM978.6 692.7c-.6 1.4-.5 1.5.5.6.7-.7 1-1.5.7-1.8-.3-.3-.9.2-1.2 1.2zM63.7 692.6c-.8.8.3 3.4 1.5 3.4.7 0 .6-.5-.1-1.3-.6-.8-.8-1.7-.4-2 .3-.4.4-.7.1-.7-.2 0-.7.3-1.1.6zM999.6 703.2c-1.4 3.3-1.5 4.3-.4 4.9 2.1 1.4 3.2 1 1.9-.5-1.3-1.6.1-5.6 1.9-5.6 1.6 0 2.3 2.2.9 3.1-1.2.8-1.2 1.1.1 1.9 2.2 1.4 3.1 1.2 2.8-.8-.2-.9.3-1.7 1.1-1.7 2.3 0 2.4 2.2.2 4.4-1.3 1.3-1.6 2.3-1 2.7 1.4.8 2.5-.3 4.3-4.7l1.5-3.7-3.8-.6c-2.1-.3-4.4-1.3-5.1-2.1-1.9-2.3-2.6-1.9-4.4 2.7zM37.1 710.4c-1.6 1.7-2.1 3.1-1.6 4.5 1.5 4.8 8.1 5.1 11.1.6 1.5-2.3 1.5-2.7 0-5-2.2-3.3-6.5-3.3-9.5-.1zm7.3-.1c2.5 1.8 1.3 5.5-2 6.3-2.6.7-5.4-1-5.4-3.2 0-1.2 3.7-4.4 5-4.4.4 0 1.4.6 2.4 1.3zM995.5 713.6c-1.5 2.7-1.6 3.6-.5 4.9 1.9 2.2 4.6 1.8 6.4-1 .9-1.4 2.1-2.5 2.6-2.5 1.6 0 1.1 4-.5 4.6-1.8.7-2 2.4-.4 2.4 1.5 0 3.8-3.1 3.9-5.1 0-.9-.7-2.2-1.5-2.9-1.3-1.1-2-.9-4.3 1.3-1.6 1.5-3.3 2.7-4 2.7-1.9 0-1.4-2.9.8-4.2 2.3-1.5 2.5-2.4.7-3.1-.8-.3-2.1.9-3.2 2.9zM46 720.4c-.6.8-1 2.8-.8 4.3.4 3.9-2.5 3.8-3.3-.2-.4-2.2-.8-2.6-1.3-1.4-.4.8-.2 2.8.4 4.3.7 2 1.6 2.7 3.3 2.4 1.8-.2 2.3-1 2.5-4.6.2-2.3.7-4.2 1.1-4.2 1.7 0 3 2.7 2.4 4.9-.4 1.8-.2 2.2.8 1.9 1.9-.7 1.3-5.9-.8-7.6-2.1-1.6-2.8-1.5-4.3.2zM990.5 724.9c-1.8 4.2-1.4 6.1 1.3 6.1 1.3 0 1.4-.2.3-.9-1.9-1.2-.4-5.1 2-5.1 2 0 2.6 1.5.9 2.5-1.2.7-.4 2.5 1.1 2.5.5 0 .9-.7.9-1.5s.6-1.5 1.4-1.5c2.5 0 2.8 1.8.6 4-2.4 2.4-2.5 3-.5 3 .8 0 2.2-1.6 3-3.6 1.7-4.2 1.9-5.8.6-4.9-1.1.6-5.8-1.2-8.2-3.2-1.4-1.2-1.8-.8-3.4 2.6zM50 730.7c-5.2 1.9-6.6 7.2-2.6 9.8 5.9 3.9 13.1-4.9 7.4-8.9-2.4-1.7-2.5-1.7-4.8-.9zm3.4 1.9c2.3.9 2 5.1-.4 6.4-4.5 2.4-8.4-1.6-5-5 2.1-2.1 2.9-2.3 5.4-1.4zM96 757c0 .5.5 1 1.1 1 .5 0 .7-.5.4-1-.3-.6-.8-1-1.1-1-.2 0-.4.4-.4 1zM99.4 759c-3 2.1-3.8 4.2-1.6 4.6.7.1.8 0 .2-.3-1.7-.8-1.1-1.9 1.6-3.2 2.9-1.3 4.7-.6 2.4.9-1.3.8-1.3 1-.1 1 1 0 .7.8-.9 2.5-1.3 1.4-1.8 2.5-1.2 2.5.6 0 1.4-.5 1.7-1 .4-.6 1-.8 1.5-.5.4.3 1.1-.3 1.5-1.2.3-1 .2-1.9-.3-2.1-.6-.2-.8-1.1-.5-2.1.7-2.8-1-3.2-4.3-1.1zM940 759.4c0 .3 1.4 1.2 3 2.1 1.7.9 3 1.3 3 1.1 0-.3-1.3-1.2-3-2.1-1.6-.9-3-1.3-3-1.1zM938 761.9c0 .5.7 1.1 1.4 1.4 1 .4 1.3.1.9-.9-.6-1.5-2.3-1.9-2.3-.5zM935.5 765.9c-.9 1.5.1 2.9 3.5 4.6 2.5 1.3 2.9 1.3 4 0 .7-.8.9-1.5.4-1.5s-.1-.5.9-1.1c.9-.5 1.7-1.5 1.7-2.1 0-.9-.3-.9-1.2 0-.9.9-1.5.9-2.7-.1-1.2-1-1.3-.9-.6.2.6 1.1.4 1.3-.8.8-1-.4-2.3-1-3.1-1.3-.8-.3-1.7-.1-2.1.5zm4 1.3c1.4.6 2.5 1.7 2.5 2.5 0 1.1-.6 1.1-3-.4-1.6-.9-3-2.1-3-2.5 0-1.1.4-1 3.5.4zM107 767c0 .5.5 1 1 1 .6 0 1-.5 1-1 0-.6-.4-1-1-1a1 1 0 0 0-1 1zM100.7 768.6c-.6 1 .9 4.2 1.6 3.4.3-.3.1-1.4-.3-2.4-.3-1.1-.9-1.5-1.3-1zM929.1 811.6c-28.3 40.8-68.9 82.3-110.8 113.2-6.2 4.5-11.3 8.7-11.3 9.3 0 4.4 11.4-3 37.5-24.5 16.5-13.6 52.6-50.1 66.7-67.4 13.6-16.8 28-36.7 28.2-39 0-.9-.6-1.7-1.4-1.9-.9-.2-4.3 3.8-8.9 10.3zM108.5 809c-.8 1.3-.7 1.4 9 14.5 14.1 19.1 28.3 35.4 48 55 23.3 23.3 42.9 39.9 67.3 57 7.4 5.1 8.5 5.6 9.9 4.3 1.3-1.4.2-2.4-9.9-9.5-42.6-30.1-83.1-69.8-112.8-110.5-8.1-11.2-10.1-13-11.5-10.8zM146.1 828.9c-2 1.6-3.1 3.3-2.7 3.9 1 1.6 2.7 1.5 2-.1-.5-1.5 3.3-5.4 4.3-4.4.3.4-.2 1.7-1.3 2.9-1.7 2.1-1.7 2.1.8-.1 2.1-1.9 2.5-2.7 1.7-3.8-1.4-1.6-.8-1.8-4.8 1.6zM893 828.4c0 .3 1.5 1.5 3.3 2.7l3.2 2.3-2.4-2.7c-2.2-2.4-4.1-3.5-4.1-2.3zM889.4 830.1c-.3.6-.1 1.6.6 2.2 1 .9 1.2.8.7-.5-.3-.9-.1-1.9.6-2.2.9-.3.9-.5 0-.5-.6-.1-1.5.4-1.9 1zM150.4 832.3l-1.9 2.2 2.2-1.8c2.1-1.8 2.1-1.8 2.5 0 .2 1.2.6 1.4 1.1.7.4-.7.1-1.7-.7-2.3-1-.8-1.7-.6-3.2 1.2zM887.1 834.4c-.8.9-.3 2 1.9 4.1 2.7 2.6 3.2 2.7 4.5 1.4 1.3-1.3 1-1.8-1.9-4.1-2.7-2.2-3.6-2.5-4.5-1.4zm5.7 5.1c-.9.9-5.8-3.6-5.1-4.8.3-.5 1.7.3 3.1 1.7 1.4 1.4 2.3 2.8 2 3.1zM893.5 835c1 1.1 2.1 1.7 2.4 1.3.3-.4 1.1-1.1 1.6-1.6.6-.5 0-.5-1.2-.2-1.4.4-2.3.2-2.3-.4 0-.6-.5-1.1-1.2-1.1-.6 0-.3.9.7 2zM156 836c0 .5.5 1 1 1 .6 0 1-.5 1-1 0-.6-.4-1-1-1a1 1 0 0 0-1 1zM148.8 837.8c.7.2 1 .7.7 1.2-.3.4.2 1.3.9 1.9 1 .8 1.6.9 2.1.1.3-.5.1-1-.4-1-2.1 0-1.1-1.9 1.2-2.3 1.2-.2.4-.4-1.8-.4s-3.4.2-2.7.5zM892.3 874.3c-2.7 2.7-2.9 4.9-.7 6.8 1.3 1 2 1 4.4-.4 3.5-2.1 4-2.1 4-.2 0 .9-1.2 2-2.7 2.6-1.8.7-2.3 1.3-1.6 2 .7.7 1.7.7 3.2-.3 2.8-1.7 3.7-4.7 1.8-6.5-1.3-1.4-1.8-1.3-4.6.3-1.7 1-3.4 1.5-3.8 1-1.2-1.1 1.2-4.1 3.6-4.4 1.8-.3 2-.6 1-1.8-1.5-1.8-1.9-1.7-4.6.9zM882.5 884c-2.8 2.9-2.8 3.1-1.1 4.8 1.7 1.6 1.8 1.6 1.2-.4-.8-2.5 1.6-4.9 3.9-4 1.9.7 2 2.6 0 2.6-1.8 0-2 1.6-.4 2.6.6.3 1.5.1 1.9-.6.5-.7 1.5-1 2.5-.6 1.7.6 1.7.8-.1 2.7-1 1.1-2.4 1.7-3.1 1.5-.7-.3-1.3-.1-1.3.5 0 2.4 3.2 2 6-.7 3.3-3.2 3.7-4.4 1.6-4.4-.8 0-2.8-1.6-4.5-3.5-1.7-1.9-3.2-3.5-3.4-3.5-.2 0-1.6 1.4-3.2 3zM155.5 883.2c-5 2.6-6 7.8-2 10.4 2.3 1.5 2.7 1.5 5 0 3.6-2.4 5.2-6.1 3.5-8.1-2.2-2.6-4.4-3.4-6.5-2.3zm4.5 2.3c2.4 2.9-1.8 8.3-5.4 6.9-2.1-.8-2-4.3.1-6.6 2-2.2 3.6-2.3 5.3-.3zM206.4 889.2l-1.9 2.3 2.3-1.9c2.9-2.5 3.9-1.4 1.5 1.8-1.9 2.6-3.3 3.3-3.3 1.6 0-.6-.6-1-1.2-1-.7.1-.2 1 1.2 2.1 2.4 2 2.5 2 2.9.3.1-1.1 1-2.7 1.8-3.6 1.4-1.6 1.1-3.8-.6-3.8-.4 0-1.6 1-2.7 2.2zM836.2 891.9c1.3 1.5 2.5 2.7 2.6 2.5.6-.4-3.2-5.3-4.1-5.4-.5 0 .2 1.3 1.5 2.9zM213 890.9c0 .5-.9 1.3-2.1 1.6-1.1.4-1.8.9-1.6 1.2.3.2 1.8-.2 3.3-1 1.7-.9 2.3-1.7 1.5-2.1-.6-.4-1.1-.3-1.1.3zM163.9 892.6c-1.1 1.4-1 2.1.4 4.6.9 1.6 1.5 3.4 1.2 3.8-.9 1.4-3.4 0-4-2.1-.7-2.2-2.5-2.6-2.5-.6 0 1.8 3.2 4.7 5.1 4.7 3.1 0 3.8-2.1 2.1-5.6-.8-1.9-1.2-3.7-.8-4.1 1-1.1 4.1 1.2 4.1 3.1 0 1.9 1.9 2.3 2.3.4.3-1.7-3.4-5.8-5.2-5.8-.8 0-2 .7-2.7 1.6zM831 891.8c0 .5 1.3 1.8 2.9 3l3 2.2-1.7-3c-1.6-2.7-4.2-4.1-4.2-2.2zM827.2 893.2c-.8.8-.4 1.9 1.5 4.4 1.4 1.9 3 3.4 3.6 3.4.6 0-.2-1.3-1.8-3-1.6-1.6-2.5-3.3-2.1-3.7.4-.5 1.9.5 3.3 2.2 1.4 1.6 2 2.1 1.5 1-1.7-3.5-4.7-5.6-6-4.3zM215.7 894.4c-.4 1-.1 1.3.9.9 1.5-.6 1.9-2.3.5-2.3-.5 0-1.1.7-1.4 1.4zM210.5 899c2 2.2 3.5 2.6 3.5.9 0-.5-.4-.7-1-.4-.5.3-1-.1-1-.9 0-.9-.7-1.6-1.7-1.6-1.4 0-1.4.2.2 2zM276.3 937.2c-1.9 2.5-2.5 4.3-.6 2 1.5-1.8 2.1-2 3.2-1 1.1 1.1 1.3 1 .9-.1-.6-2-2.3-2.4-3.5-.9zM766 937.5c0 .5.9 2.3 2 4 1.1 1.6 2 2.5 2 2 0-.6-.9-2.4-2-4-1.1-1.7-2-2.6-2-2zM761.4 939.4c-.3.8-1.2 1.2-1.9 1-2.2-.9-2.7 1.4-1 4.5 1.9 3.8 3 4.4 4.4 2.7 1-1.2.9-1.3-.7-1-1.3.4-2.2-.3-3-2.2-.7-1.4-1.1-2.9-.8-3.1.6-.6 3.8 1.2 3.7 2-.3 1.8 0 2.1.8.8.5-.8 1.6-1.1 2.6-.8.9.4 1.3 1.1 1 1.7-.3.5-.1 1 .5 1 .7 0 .9-.7.6-1.6-.3-.9-.6-1.8-.6-2 0-.2-1.1-.4-2.5-.4-2.9 0-3.5-2.6-.7-3.3 1.6-.4 1.6-.5-.1-.6-1 0-2 .5-2.3 1.3zM787.7 945.6c-40.7 26-91.8 48.1-138.2 60-7.7 1.9-15.7 4-17.7 4.5-3.9 1-4.3 1.5-3 3.6.6 1 3.2.7 11.2-1.3 52.8-12.7 103.3-34 150.7-63.6 10.7-6.6 11.4-7.3 10-9.1-1.1-1.4-2.6-.7-13 5.9zM283.2 942c-1.2 1.9-1.1 2 .8.8 1.1-.7 2-1.6 2-2 0-1.5-1.5-.8-2.8 1.2zM276.5 942.1c-.4.6-1.4.8-2.2.5-.9-.4-1.3-.1-1.1.6.7 2 2.3 1.9 3.6-.2.7-1.1 1-2 .8-2-.3 0-.8.5-1.1 1.1zM249.6 944.6c-.4.9-.5 1.8-.3 2 .1.2 6.3 4 13.7 8.4 15.8 9.6 54.4 28.7 71.5 35.5 24.1 9.6 55.5 19.3 78.8 24.4 7.7 1.7 8.9 1.7 9.4.4.9-2.2-.5-2.9-9.2-4.7-22.6-4.8-54.6-14.8-79.4-24.8-18.1-7.2-50.2-23.2-67.1-33.3-17.3-10.4-16.6-10-17.4-7.9zM278 944.5c0 1.6 2.2 3.5 4 3.4 1.3 0 1.3-.1 0-.6-.8-.4-2-1.3-2.7-2.2-.7-.9-1.3-1.1-1.3-.6zM350.6 973.6c-.5 1.3-.4 1.4.7.6.8-.7 1.8-.8 2.2-.4.5.4.5.1.1-.6-1-1.7-2.3-1.5-3 .4zM356.6 974.7c.5.5 1.2 1.2 1.6 1.8.4.6.8.2.8-.8 0-.9-.7-1.7-1.7-1.7-.9 0-1.2.3-.7.7zM690.6 975.3c.3 1 .9 1.5 1.2 1.2.3-.3 0-1.1-.7-1.8-1-.9-1.1-.8-.5.6zM362 976.4c0 .8-.6 1.6-1.2 1.9-.7.2-1 .7-.7 1.1.3.3 1.4-.2 2.3-1.3 1.1-1.2 1.4-2.1.7-2.6-.6-.3-1.1 0-1.1.9zM681.3 977.5c-.3.9-.3 1.9.1 2.2.3.4.6-.2.6-1.1 0-1.2.5-1.6 1.6-1.2.8.3 1.2.2.9-.4-.9-1.5-2.5-1.2-3.2.5zM688.6 977.9c-.4.6-.2 1.1.3 1.1 1.5 0 1.4 2.7-.1 3.3-1 .4-1 .6 0 .6 1.7.1 2.6-2.4 1.4-4.5-.6-1.1-1.1-1.3-1.6-.5zM357.1 979.4c-.1 1.3-.6 1.7-2.1 1.3-1.2-.3-1.8-.1-1.4.5.3.5 1.4.8 2.4.5 1.1-.3 2.1.1 2.4.9.7 1.7 2.6 1.9 2.6.2 0-.6-.3-.8-.7-.4-.4.3-1.2-.6-1.9-2.1-.9-2.1-1.3-2.3-1.3-.9zM692.1 979.6c0 1.1.3 1.4.6.6.3-.7.2-1.6-.1-1.9-.3-.4-.6.2-.5 1.3zM349.7 980.1c.7.7 1.5 1 1.8.7.3-.3-.2-.9-1.2-1.2-1.4-.6-1.5-.5-.6.5zM684.6 982.9c-1.2.5-1.5 1-.9 1.4.6.4 1.6 0 2.3-.8 1.4-1.7 1.3-1.7-1.4-.6zM732.8 988.1c-5.4 2-4.2 6.9 1.8 6.9 2.4 0 3.4.5 3.4 1.5s-1 1.5-3.2 1.5c-2.5 0-2.9.3-2 1.2 2 2 6.7-.2 6.7-3.2 0-2.2-.5-2.5-4.2-2.8-4.5-.3-5.5-1.5-2.5-3.1 1.1-.6 2.4-.6 3.6.1 1.5.8 1.7.7 1.4-.8-.4-2.2-1.6-2.5-5-1.3zM313.6 992.6c-4 4-2.2 10.4 2.9 10.4 4.5 0 7.5-7.6 4.3-10.8-1.7-1.7-5.4-1.5-7.2.4zm6.3 1.8c1.3 1.5 0 5.3-2.2 6.8-1.5.9-4.7-1-4.7-2.8 0-4.5 4.4-7 6.9-4zM719.9 993.9c-3.4 2.8-1.5 5.7 3.5 5.4 2.5-.2 3.6.2 3.6 1.1 0 1.7-2.5 2.7-4.5 2-1-.4-1.5 0-1.5 1.1 0 1.4.6 1.6 2.8 1 6.9-1.7 6.8-7.3-.3-6.7-3.1.3-3.6.1-3.3-1.5.3-1.3 1.2-1.8 3.5-1.7 2.3.1 3-.2 2.6-1.2-.7-2-3.7-1.7-6.4.5zM433 997c-1.8 3.3-1.2 7 1 7 1.1 0 2-.4 2-1 0-.5-.7-.7-1.6-.3-1.2.4-1.5 0-1.2-2.2.4-3.7 2.5-4.4 3.4-1.1.3 1.4 1.1 2.4 1.6 2.3.6-.1 1.3.4 1.6 1.2.3 1 0 1.2-1.2.8-.9-.4-1.6-.2-1.6.3 0 1.6 3 1.2 3.6-.5.6-1.5-3.1-6.9-5.3-7.9-.7-.3-1.7.3-2.3 1.4zM325.7 996.7c-1.4 1.3-.6 4 1.8 6.3 1.8 1.7 2.2 2.6 1.3 3.1-.8.5-2.1 0-3.4-1.2-1.7-1.6-2.2-1.7-2.7-.6-.3.9.4 1.9 1.9 2.6 3.3 1.5 4.9 1.4 6.4-.4 1-1.2.7-1.9-1.5-3.9-1.6-1.5-2.5-3.2-2.2-4.1.8-2 3.6-.8 4.7 1.9.7 1.9.9 2 1.5.3 1.2-3-5.5-6.4-7.8-4zM439 997c.8.5 2 1 2.5 1 .6 0 .3-.5-.5-1s-1.9-1-2.5-1c-.5 0-.3.5.5 1zM599.7 996.7c-.3.5-.1 1.7.4 2.8.7 1.9.8 1.9.8-.3.1-1.3.5-2 1.1-1.7.6.3 1 .1 1-.4 0-1.2-2.7-1.5-3.3-.4zM609.1 999.4c-.1 3.5-.3 3.8-2.6 3.4-1.4-.3-2.8-.2-3.1.3-.2.4-1.2.5-2.2.2-1.2-.4-1.4-.3-.7.5 1 1 8.9.2 10.1-1.1.3-.2.1-2-.5-3.8l-.9-3.4-.1 3.9zM709.3 998c-3.1 1.4-4.1 2.3-3.7 3.4.8 2 2.4 2.1 2.4.2 0-1.3 2-2.6 4.1-2.6.5 0 .9.9.9 2 0 1.3-.5 1.8-1.5 1.4-.9-.4-1.5 0-1.5.8 0 2.2 1.2 2.9 2.7 1.6 1.7-1.4 2.8-.4 1.9 1.8-.4 1.1-1.4 1.5-3.1 1.2-2.6-.5-3.5.9-1.1 1.8 1.8.7 9.4-2.5 8-3.4-1.8-1.1-4.6-7.3-4-8.8.7-1.8 0-1.7-5.1.6zM442.4 999.4c-.3.8-.4 2.5-.2 3.8.3 1.7.5 1.3.9-1.5.5-3.8.2-4.7-.7-2.3zM337.2 1001.2c-1.8 1.8-1.5 3.2 1.3 5.8 1.4 1.3 2.5 2.7 2.5 3.2 0 1.3-2.7.9-4-.7-1.6-1.9-3-1.9-3-.1 0 2.2 5.6 4.1 7.5 2.6 2.1-1.7 1.9-2.7-1-5.2-1.4-1.2-2.5-2.8-2.5-3.5 0-2.1 2.7-1.5 4.5.9 1.3 1.9 1.7 2.1 2.5.8.6-1 .2-1.9-1.8-3.2-3.2-2.1-4.4-2.2-6-.6zM516.7 1003.6c-1.1 1.2-.8 2.6.4 1.8.6-.3 1.5 0 2.1.7.7 1.1.8 1 .6-.5-.3-2.1-2-3.1-3.1-2zM521.7 1003.7c-.2.5-.5 2.5-.5 4.5-.1 2.7.3 3.8 1.3 3.8.8 0 1.5-.5 1.5-1.1 0-.5-.4-.7-1-.4-.5.3-1-.1-1-1s.5-1.3 1-1c.6.3 1-.1 1-1s-.4-1.3-1-1c-.5.3-1-.1-1-1s.5-1.3 1-1c.6.3 1 .1 1-.4 0-1.3-1.7-1.5-2.3-.4zM526.3 1007.5c0 2.2.2 3 .4 1.7.2-1.2.2-3 0-4-.3-.9-.5.1-.4 2.3zM515.2 1010c.2.8 1.3 1.5 2.3 1.5 1 0 2-.7 2.2-1.5.4-1.3.3-1.3-.5-.1-.9 1.3-1.3 1.3-2.8 0-1.5-1.2-1.7-1.2-1.2.1zM602 1015.6c-23.8 4.2-40.3 5.6-71.7 6.1-36.4.7-61.9-1.1-90.6-6.1-6.8-1.2-7.9-1.1-8.4.1-.3.8-.2 1.8.3 2.3 1.1 1.1 31.6 5.5 48.9 7.1 16.8 1.5 65.4 1.5 81.5 0 19.2-1.8 52.5-6.6 56.7-8.2 2.8-1 2-4-1.1-3.8-1.1.1-8.2 1.2-15.6 2.5zM517.7 1034.7c-1.8 1.7-.5 4.5 2.8 5.9 1.9.8 3.5 1.9 3.5 2.4 0 2-3.1 2.2-5 .5-1.9-1.8-2-1.7-2 .6 0 2 .5 2.4 3.3 2.6 2.7.2 3.6-.2 4.7-2.2 1.5-2.8.1-5.5-3.1-5.5-2.3 0-3.5-1.8-2.1-3.2.8-.8 1.5-.8 2.6.1 1.6 1.4 4 .6 3.1-1-.7-1-6.8-1.2-7.8-.2z"/></g></svg>